<svg id="_009-slider-1" data-name="009-slider-1" xmlns="http://www.w3.org/2000/svg" xmlns:xlink="http://www.w3.org/1999/xlink" width="80.72" height="72.382" viewBox="0 0 80.72 72.382">
  <defs>
    <linearGradient id="linear-gradient" x1="0.5" x2="0.5" y2="1" gradientUnits="objectBoundingBox">
      <stop offset="0" stop-color="#fdba24"/>
      <stop offset="1" stop-color="#ff9535"/>
    </linearGradient>
  </defs>
  <path id="Path_68345" data-name="Path 68345" d="M182.577,43.489h40.912a1.577,1.577,0,1,0,0-3.153H182.577a1.577,1.577,0,1,0,0,3.153Zm0,0" transform="translate(-152.464 -33.977)" fill="url(#linear-gradient)"/>
  <path id="Path_68346" data-name="Path 68346" d="M51.03,43.23a1.557,1.557,0,0,0,.272.145,1.632,1.632,0,0,0,.295.09,1.58,1.58,0,0,0,1.854-1.854,1.632,1.632,0,0,0-.09-.295,1.657,1.657,0,0,0-.145-.273,1.578,1.578,0,0,0-1.619-.67,1.632,1.632,0,0,0-.295.09,1.557,1.557,0,0,0-.272.145,1.533,1.533,0,0,0-.24.2,1.557,1.557,0,0,0-.2.24,1.656,1.656,0,0,0-.145.273,1.583,1.583,0,0,0-.089.295,1.532,1.532,0,0,0-.032.307,1.584,1.584,0,0,0,.463,1.115A1.511,1.511,0,0,0,51.03,43.23Zm0,0" transform="translate(-42.394 -33.983)" fill="url(#linear-gradient)"/>
  <path id="Path_68347" data-name="Path 68347" d="M90.453,42.519a1.7,1.7,0,0,0,.145.273,1.57,1.57,0,0,0,.2.238,1.511,1.511,0,0,0,.24.2,1.541,1.541,0,0,0,.273.145,1.611,1.611,0,0,0,.294.09,1.565,1.565,0,0,0,.307.03,1.588,1.588,0,0,0,.309-.03,1.694,1.694,0,0,0,.295-.09,1.591,1.591,0,0,0,.271-.145,1.511,1.511,0,0,0,.24-.2,1.527,1.527,0,0,0,.342-.511,1.546,1.546,0,0,0,.119-.6,1.565,1.565,0,0,0-.03-.307,1.584,1.584,0,0,0-.09-.295,1.559,1.559,0,0,0-.342-.512,1.587,1.587,0,0,0-1.422-.43,1.611,1.611,0,0,0-.294.09,1.541,1.541,0,0,0-.273.145,1.5,1.5,0,0,0-.24.2,1.525,1.525,0,0,0-.2.24,1.653,1.653,0,0,0-.145.273,1.584,1.584,0,0,0-.09.295,1.522,1.522,0,0,0-.031.307,1.544,1.544,0,0,0,.031.309A1.585,1.585,0,0,0,90.453,42.519Zm0,0" transform="translate(-76.091 -33.979)" fill="url(#linear-gradient)"/>
  <path id="Path_68348" data-name="Path 68348" d="M130.45,42.518a1.612,1.612,0,0,0,.145.271,1.5,1.5,0,0,0,.2.24,1.582,1.582,0,0,0,.24.2,1.541,1.541,0,0,0,.273.145,1.611,1.611,0,0,0,.294.09,1.582,1.582,0,0,0,1.619-.672,1.615,1.615,0,0,0,.145-.271,1.794,1.794,0,0,0,.09-.295,1.588,1.588,0,0,0,.03-.309,1.565,1.565,0,0,0-.03-.307,1.737,1.737,0,0,0-.09-.295,1.56,1.56,0,0,0-.342-.512,1.53,1.53,0,0,0-.24-.2,1.616,1.616,0,0,0-.271-.145,1.71,1.71,0,0,0-.295-.09,1.573,1.573,0,0,0-.616,0,1.632,1.632,0,0,0-.295.09,1.558,1.558,0,0,0-.272.145,1.534,1.534,0,0,0-.24.2,1.618,1.618,0,0,0-.2.24,1.655,1.655,0,0,0-.145.273,1.581,1.581,0,0,0-.089.295,1.523,1.523,0,0,0-.032.307,1.546,1.546,0,0,0,.032.309A1.583,1.583,0,0,0,130.45,42.518Zm0,0" transform="translate(-109.781 -33.978)" fill="url(#linear-gradient)"/>
  <path id="Path_68349" data-name="Path 68349" d="M41.577,160.1h64.876a1.576,1.576,0,0,0,1.577-1.577V120.686a1.576,1.576,0,0,0-1.577-1.577H41.577A1.576,1.576,0,0,0,40,120.686v37.838A1.576,1.576,0,0,0,41.577,160.1Zm1.577-37.838h61.723v34.684H43.153Zm0,0" transform="translate(-33.694 -100.331)" fill="url(#linear-gradient)"/>
  <path id="Path_68350" data-name="Path 68350" d="M85.844,219.466a1.576,1.576,0,0,0-2.229,0l-3.153,3.153a1.576,1.576,0,0,0,0,2.229l3.09,3.09a1.576,1.576,0,1,0,2.229-2.229l-1.975-1.975,2.038-2.038A1.576,1.576,0,0,0,85.844,219.466Zm0,0" transform="translate(-67.387 -184.477)" fill="url(#linear-gradient)"/>
  <path id="Path_68351" data-name="Path 68351" d="M394.755,219.466a1.576,1.576,0,0,0-2.229,2.229l1.974,1.975-2.038,2.038a1.576,1.576,0,1,0,2.229,2.229l3.153-3.153a1.576,1.576,0,0,0,0-2.229Zm0,0" transform="translate(-330.199 -184.477)" fill="url(#linear-gradient)"/>
  <path id="Path_68352" data-name="Path 68352" d="M185.955,278.5H157.577a1.577,1.577,0,0,0,0,3.153h28.378a1.577,1.577,0,0,0,0-3.153Zm0,0" transform="translate(-131.406 -234.589)" fill="url(#linear-gradient)"/>
  <path id="Path_68353" data-name="Path 68353" d="M197.577,202.262h15.766a1.577,1.577,0,1,0,0-3.153H197.577a1.577,1.577,0,1,0,0,3.153Zm0,0" transform="translate(-165.099 -167.718)" fill="url(#linear-gradient)"/>
  <path id="Path_68354" data-name="Path 68354" d="M208.452,399.374a1.562,1.562,0,0,0-.273-.145,1.584,1.584,0,0,0-.295-.09,1.541,1.541,0,0,0-.615,0,1.584,1.584,0,0,0-.295.09,1.561,1.561,0,0,0-.512.342,1.576,1.576,0,0,0,0,2.229,1.534,1.534,0,0,0,.24.2,1.553,1.553,0,0,0,.272.145,1.584,1.584,0,0,0,.295.09,1.588,1.588,0,0,0,1.182-.235,1.529,1.529,0,0,0,.24-.2,1.576,1.576,0,0,0,0-2.229A1.541,1.541,0,0,0,208.452,399.374Zm0,0" transform="translate(-173.523 -336.186)" fill="url(#linear-gradient)"/>
  <path id="Path_68355" data-name="Path 68355" d="M249.032,400.082a1.614,1.614,0,0,0-.145-.271,1.494,1.494,0,0,0-.2-.24,1.57,1.57,0,0,0-.24-.2,1.581,1.581,0,0,0-.568-.235,1.541,1.541,0,0,0-.615,0,1.622,1.622,0,0,0-.3.089,1.6,1.6,0,0,0-.272.145,1.541,1.541,0,0,0-.24.2,1.578,1.578,0,0,0-.342.511,1.679,1.679,0,0,0-.09.295,1.6,1.6,0,0,0-.03.309,1.566,1.566,0,0,0,.03.307,1.633,1.633,0,0,0,.09.295,1.656,1.656,0,0,0,.145.273,1.612,1.612,0,0,0,.2.24,1.5,1.5,0,0,0,.24.2,1.6,1.6,0,0,0,.272.145,1.674,1.674,0,0,0,.3.09,1.521,1.521,0,0,0,.615,0,1.631,1.631,0,0,0,.295-.09,1.587,1.587,0,0,0,.273-.145,1.523,1.523,0,0,0,.24-.2,1.494,1.494,0,0,0,.2-.24,1.657,1.657,0,0,0,.145-.273,1.633,1.633,0,0,0,.09-.295,1.567,1.567,0,0,0,.031-.307,1.593,1.593,0,0,0-.121-.6Zm0,0" transform="translate(-207.217 -336.186)" fill="url(#linear-gradient)"/>
  <path id="Path_68356" data-name="Path 68356" d="M289.032,400.082a1.614,1.614,0,0,0-.145-.271,1.494,1.494,0,0,0-.2-.24,1.573,1.573,0,0,0-.24-.2,1.581,1.581,0,0,0-.568-.235,1.541,1.541,0,0,0-.615,0,1.623,1.623,0,0,0-.3.089,1.6,1.6,0,0,0-.272.145,1.575,1.575,0,0,0-.435.437,1.611,1.611,0,0,0-.145.271,1.5,1.5,0,0,0-.09.295,1.6,1.6,0,0,0-.031.309,1.567,1.567,0,0,0,.031.307,1.5,1.5,0,0,0,.09.295,1.654,1.654,0,0,0,.145.273,1.53,1.53,0,0,0,.2.24,1.5,1.5,0,0,0,.24.2,1.6,1.6,0,0,0,.272.145,1.674,1.674,0,0,0,.3.09,1.521,1.521,0,0,0,.615,0,1.631,1.631,0,0,0,.295-.09,1.589,1.589,0,0,0,.273-.145,1.526,1.526,0,0,0,.24-.2,1.494,1.494,0,0,0,.2-.24,1.657,1.657,0,0,0,.145-.273,1.5,1.5,0,0,0,.09-.295,1.567,1.567,0,0,0,.031-.307,1.6,1.6,0,0,0-.031-.309A1.5,1.5,0,0,0,289.032,400.082Zm0,0" transform="translate(-240.91 -336.186)" fill="url(#linear-gradient)"/>
  <path id="Path_68357" data-name="Path 68357" d="M79.144,0H1.577A1.576,1.576,0,0,0,0,1.577V70.805a1.576,1.576,0,0,0,1.577,1.577H79.144a1.576,1.576,0,0,0,1.577-1.577V1.577A1.576,1.576,0,0,0,79.144,0ZM77.567,3.153v9.319H3.153V3.153Zm0,66.075H3.153v-53.6H77.567Zm0,0" fill="url(#linear-gradient)"/>
  <path id="Path_68358" data-name="Path 68358" d="M324.57,238.887h-2.434a1.577,1.577,0,0,0,0,3.153h2.434a1.577,1.577,0,1,0,0-3.153Zm0,0" transform="translate(-270.02 -201.225)" fill="url(#linear-gradient)"/>
  <path id="Path_68359" data-name="Path 68359" d="M157.577,242.04h13.331a1.577,1.577,0,1,0,0-3.153H157.577a1.577,1.577,0,0,0,0,3.153Zm0,0" transform="translate(-131.406 -201.225)" fill="url(#linear-gradient)"/>
  <path id="Path_68360" data-name="Path 68360" d="M282.4,238.839a1.584,1.584,0,0,0-.295-.09,1.551,1.551,0,0,0-.616,0,1.585,1.585,0,0,0-.3.09,1.671,1.671,0,0,0-.272.145,1.618,1.618,0,0,0-.24.2,1.584,1.584,0,0,0-.462,1.115,1.532,1.532,0,0,0,.032.307,1.579,1.579,0,0,0,.089.295,1.683,1.683,0,0,0,.145.273,1.579,1.579,0,0,0,.2.24,1.5,1.5,0,0,0,.24.2,1.63,1.63,0,0,0,.272.145,1.594,1.594,0,0,0,1.719-.341,1.619,1.619,0,0,0,.2-.24,1.681,1.681,0,0,0,.145-.273,1.579,1.579,0,0,0,.089-.295,1.529,1.529,0,0,0,.031-.307,1.581,1.581,0,0,0-.462-1.115,1.725,1.725,0,0,0-.241-.2A1.612,1.612,0,0,0,282.4,238.839Zm0,0" transform="translate(-236.04 -201.082)" fill="url(#linear-gradient)"/>
</svg>
