<svg id="foley" xmlns="http://www.w3.org/2000/svg" xmlns:xlink="http://www.w3.org/1999/xlink" width="88.039" height="88.039" viewBox="0 0 88.039 88.039">
  <defs>
    <linearGradient id="linear-gradient" x1="0.5" x2="0.5" y2="1" gradientUnits="objectBoundingBox">
      <stop offset="0" stop-color="#fdba24"/>
      <stop offset="1" stop-color="#ff9535"/>
    </linearGradient>
  </defs>
  <path id="Path_67991" data-name="Path 67991" d="M182.15,159.477a14.673,14.673,0,0,0-29.346,0,2.935,2.935,0,0,1-2.935,2.935h-4.4A1.467,1.467,0,0,1,144,160.944v-1.467a23.477,23.477,0,0,1,46.954,0v1.467a1.467,1.467,0,0,1-1.467,1.467h-4.4A2.935,2.935,0,0,1,182.15,159.477Zm0,0" transform="translate(-117.588 -111.056)" fill="#d6d6d6"/>
  <path id="Path_67992" data-name="Path 67992" d="M194.935,312h2.935a2.935,2.935,0,0,1,2.935,2.935v14.673a2.935,2.935,0,0,1-2.935,2.935h-2.935A2.935,2.935,0,0,1,192,329.608V314.935A2.935,2.935,0,0,1,194.935,312Zm0,0" transform="translate(-156.784 -254.775)" fill="url(#linear-gradient)"/>
  <path id="Path_67993" data-name="Path 67993" d="M306.935,312h2.935a2.935,2.935,0,0,1,2.935,2.935v14.673a2.935,2.935,0,0,1-2.935,2.935h-2.935A2.935,2.935,0,0,1,304,329.608V314.935A2.935,2.935,0,0,1,306.935,312Zm0,0" transform="translate(-248.242 -254.775)" fill="url(#linear-gradient)"/>
  <path id="Path_67994" data-name="Path 67994" d="M16.8,8a8.8,8.8,0,0,1,8.8,8.8v8.8H8V16.8A8.8,8.8,0,0,1,16.8,8Zm0,0" transform="translate(-6.533 -6.533)" fill="#fdb924"/>
  <path id="Path_67995" data-name="Path 67995" d="M8,104H25.608v17.608a8.8,8.8,0,1,1-17.608,0Zm0,0" transform="translate(-6.533 -84.925)" fill="url(#linear-gradient)"/>
  <path id="Path_67996" data-name="Path 67996" d="M153.467,72h5.869v5.869h-5.869A1.467,1.467,0,0,1,152,76.4V73.467A1.467,1.467,0,0,1,153.467,72Zm0,0" transform="translate(-124.121 -58.794)" fill="#fe9534"/>
  <path id="Path_67997" data-name="Path 67997" d="M192,72h52.824v5.869H192Zm0,0" transform="translate(-156.784 -58.794)" fill="#fdb924"/>
  <path id="Path_67998" data-name="Path 67998" d="M88.039,14.673V11.739H29.346a2.938,2.938,0,0,0-2.935,2.935H20.543v-4.4A10.271,10.271,0,0,0,0,10.271V36.683a10.271,10.271,0,0,0,20.543,0V17.608h5.869a2.938,2.938,0,0,0,2.935,2.935H88.039V17.608H36.683V14.673Zm-85.1-4.4a7.337,7.337,0,0,1,14.673,0v7.337H2.935ZM17.608,36.683a7.337,7.337,0,0,1-14.673,0V20.542H17.608ZM33.748,17.608h-4.4V14.673h4.4Zm0,0" transform="translate(0)" fill="#5c041d"/>
  <path id="Path_67999" data-name="Path 67999" d="M32,192h2.935v2.935H32Zm0,0" transform="translate(-26.131 -156.784)" fill="#5c041d"/>
  <path id="Path_68000" data-name="Path 68000" d="M64,192h2.935v2.935H64Zm0,0" transform="translate(-52.261 -156.784)" fill="#5c041d"/>
  <path id="Path_68001" data-name="Path 68001" d="M32,160h2.935v2.935H32Zm0,0" transform="translate(-26.131 -130.654)" fill="#5c041d"/>
  <path id="Path_68002" data-name="Path 68002" d="M64,160h2.935v2.935H64Zm0,0" transform="translate(-52.261 -130.654)" fill="#5c041d"/>
  <path id="Path_68003" data-name="Path 68003" d="M32,128h2.935v2.935H32Zm0,0" transform="translate(-26.131 -104.523)" fill="#5c041d"/>
  <path id="Path_68004" data-name="Path 68004" d="M64,128h2.935v2.935H64Zm0,0" transform="translate(-52.261 -104.523)" fill="#5c041d"/>
  <path id="Path_68005" data-name="Path 68005" d="M190.291,132.4V188.16a1.468,1.468,0,0,1-1.467,1.467H174.15a1.468,1.468,0,0,1-1.467-1.467v-4.4a4.407,4.407,0,0,0,4.4-4.4v-5.869h1.467a4.407,4.407,0,0,0,4.4-4.4V157.346a2.938,2.938,0,0,0,2.935-2.935v-1.467a24.944,24.944,0,0,0-49.889,0v1.467a2.939,2.939,0,0,0,2.935,2.935v11.738a4.407,4.407,0,0,0,4.4,4.4H144.8v5.869a4.407,4.407,0,0,0,4.4,4.4h2.935a4.407,4.407,0,0,0,4.4-4.4V164.683a4.407,4.407,0,0,0-4.4-4.4h-2.935a4.407,4.407,0,0,0-4.4,4.4v5.869h-1.467a1.468,1.468,0,0,1-1.467-1.467V157.346h1.467a4.407,4.407,0,0,0,4.4-4.4,13.206,13.206,0,0,1,26.412,0,4.407,4.407,0,0,0,4.4,4.4h1.467v11.738a1.468,1.468,0,0,1-1.467,1.467h-1.467v-5.869a4.407,4.407,0,0,0-4.4-4.4h-2.935a4.407,4.407,0,0,0-4.4,4.4v14.673a4.407,4.407,0,0,0,4.4,4.4v4.4a4.407,4.407,0,0,0,4.4,4.4h14.673a4.407,4.407,0,0,0,4.4-4.4V132.4a1.468,1.468,0,0,1,1.467-1.467h4.4V128h-4.4A4.407,4.407,0,0,0,190.291,132.4Zm-42.552,32.281a1.468,1.468,0,0,1,1.467-1.467h2.935a1.468,1.468,0,0,1,1.467,1.467v14.673a1.468,1.468,0,0,1-1.467,1.467h-2.935a1.468,1.468,0,0,1-1.467-1.467Zm29.346-11.738a16.141,16.141,0,0,0-32.281,0,1.468,1.468,0,0,1-1.467,1.467h-4.4v-1.467a22.01,22.01,0,0,1,44.02,0v1.467h-4.4A1.468,1.468,0,0,1,177.085,152.944Zm-8.8,26.412V164.683a1.468,1.468,0,0,1,1.467-1.467h2.935a1.468,1.468,0,0,1,1.467,1.467v14.673a1.468,1.468,0,0,1-1.467,1.467h-2.935A1.468,1.468,0,0,1,168.281,179.356Zm0,0" transform="translate(-111.055 -104.523)" fill="#5c041d"/>
</svg>
