<svg xmlns="http://www.w3.org/2000/svg" xmlns:xlink="http://www.w3.org/1999/xlink" width="207.78" height="167.485" viewBox="0 0 207.78 167.485">
  <defs>
    <linearGradient id="linear-gradient" x1="0.5" x2="0.5" y2="1" gradientUnits="objectBoundingBox">
      <stop offset="0" stop-color="#fdba24"/>
      <stop offset="1" stop-color="#ff9535"/>
    </linearGradient>
    <linearGradient id="linear-gradient-3" x1="0.5" x2="0.5" y2="1" gradientUnits="objectBoundingBox">
      <stop offset="0" stop-color="#d34069"/>
      <stop offset="1" stop-color="#380111"/>
    </linearGradient>
    <linearGradient id="linear-gradient-5" x1="0.911" y1="0.787" x2="0.041" y2="0.266" xlink:href="#linear-gradient-3"/>
    <linearGradient id="linear-gradient-6" x1="0.39" y1="0.766" x2="0.778" y2="0.019" gradientUnits="objectBoundingBox">
      <stop offset="0" stop-color="#965cf2"/>
      <stop offset="1" stop-color="#ff8adc"/>
    </linearGradient>
    <linearGradient id="linear-gradient-7" x1="0.49" y1="0.906" x2="0.513" y2="-0.021" gradientUnits="objectBoundingBox">
      <stop offset="0" stop-color="#6d6afe"/>
      <stop offset="1" stop-color="#3fb0f7"/>
    </linearGradient>
    <linearGradient id="linear-gradient-8" x1="0.847" y1="0.29" x2="0.547" y2="0.687" gradientUnits="objectBoundingBox">
      <stop offset="0" stop-color="#ff66bc"/>
      <stop offset="0.56" stop-color="#ff8adc"/>
      <stop offset="1" stop-color="#ffbba8"/>
    </linearGradient>
    <linearGradient id="linear-gradient-9" x1="0.73" y1="0.469" x2="0.189" y2="0.542" xlink:href="#linear-gradient-8"/>
    <linearGradient id="linear-gradient-10" x1="0.871" y1="1.353" x2="0.313" y2="-0.045" xlink:href="#linear-gradient-7"/>
    <linearGradient id="linear-gradient-11" x1="0.609" y1="0.767" x2="0.186" y2="-0.049" xlink:href="#linear-gradient-6"/>
    <linearGradient id="linear-gradient-12" x1="0.573" y1="0.424" x2="0.435" y2="0.567" xlink:href="#linear-gradient-3"/>
    <linearGradient id="linear-gradient-13" x1="0.6" y1="0.204" x2="0.196" y2="0.815" gradientUnits="objectBoundingBox">
      <stop offset="0" stop-color="#94e69a"/>
      <stop offset="1" stop-color="#17adc9"/>
    </linearGradient>
    <linearGradient id="linear-gradient-14" x1="0.303" y1="0.261" x2="0.772" y2="0.775" gradientUnits="objectBoundingBox">
      <stop offset="0" stop-color="#3773c2"/>
      <stop offset="1" stop-color="#214075"/>
    </linearGradient>
    <linearGradient id="linear-gradient-15" x1="0.356" y1="0.321" x2="0.783" y2="0.982" xlink:href="#linear-gradient-14"/>
    <linearGradient id="linear-gradient-16" x1="0.187" y1="0.257" x2="1.07" y2="0.737" xlink:href="#linear-gradient-14"/>
    <linearGradient id="linear-gradient-17" x1="0.413" y1="0.35" x2="0.949" y2="0.693" xlink:href="#linear-gradient-14"/>
    <linearGradient id="linear-gradient-18" x1="0.455" y1="0.31" x2="0.673" y2="0.824" xlink:href="#linear-gradient-13"/>
    <linearGradient id="linear-gradient-19" x1="0.32" y1="0.284" x2="0.633" y2="0.643" gradientUnits="objectBoundingBox">
      <stop offset="0" stop-color="#ff8a78"/>
      <stop offset="0.37" stop-color="#ff9584"/>
      <stop offset="1" stop-color="#ffa799"/>
    </linearGradient>
    <linearGradient id="linear-gradient-20" x1="0.389" y1="0.316" x2="0.563" y2="0.791" gradientUnits="objectBoundingBox">
      <stop offset="0" stop-color="#ffb89e"/>
      <stop offset="1" stop-color="#ffa799"/>
    </linearGradient>
    <linearGradient id="linear-gradient-21" x1="0.365" y1="0.262" x2="0.587" y2="0.921" gradientUnits="objectBoundingBox">
      <stop offset="0" stop-color="#5a2d68"/>
      <stop offset="1" stop-color="#22043d"/>
    </linearGradient>
    <linearGradient id="linear-gradient-22" x1="0.012" y1="0.187" x2="0.601" y2="0.755" gradientUnits="objectBoundingBox">
      <stop offset="0" stop-color="#8a4791"/>
      <stop offset="1" stop-color="#562e65"/>
    </linearGradient>
    <linearGradient id="linear-gradient-23" x1="0.535" y1="0.295" x2="0.425" y2="0.88" gradientUnits="objectBoundingBox">
      <stop offset="0" stop-color="#c4e0f5"/>
      <stop offset="1" stop-color="#e1e8f6"/>
    </linearGradient>
    <linearGradient id="linear-gradient-24" x1="0.436" y1="0.561" x2="0.654" y2="0.354" xlink:href="#linear-gradient-7"/>
    <linearGradient id="linear-gradient-25" x1="0.592" y1="0.383" x2="0.414" y2="0.608" xlink:href="#linear-gradient-23"/>
    <linearGradient id="linear-gradient-26" x1="0.307" y1="0.085" x2="0.609" y2="0.846" xlink:href="#linear-gradient-13"/>
    <linearGradient id="linear-gradient-27" x1="0.347" y1="0.659" x2="0.52" y2="0.373" gradientUnits="objectBoundingBox">
      <stop offset="0" stop-color="#fa5db1"/>
      <stop offset="1" stop-color="#febfbf"/>
    </linearGradient>
    <linearGradient id="linear-gradient-28" x1="0.45" y1="0.678" x2="0.506" y2="0.564" xlink:href="#linear-gradient-27"/>
    <linearGradient id="linear-gradient-29" x1="0.518" y1="0.504" x2="2.064" y2="0.165" xlink:href="#linear-gradient-27"/>
    <linearGradient id="linear-gradient-31" x1="0.491" y1="0.104" x2="0.522" y2="0.968" gradientUnits="objectBoundingBox">
      <stop offset="0" stop-color="#ff8a78"/>
      <stop offset="1" stop-color="#ffa799"/>
    </linearGradient>
    <linearGradient id="linear-gradient-32" x1="0.499" y1="0.25" x2="0.528" y2="1.44" xlink:href="#linear-gradient-31"/>
    <linearGradient id="linear-gradient-33" x1="0.423" y1="0.132" x2="0.616" y2="0.772" xlink:href="#linear-gradient-3"/>
    <linearGradient id="linear-gradient-34" x1="0.845" y1="0.229" x2="0.127" y2="0.771" gradientUnits="objectBoundingBox">
      <stop offset="0" stop-color="#3a407f"/>
      <stop offset="1" stop-color="#1b2153"/>
    </linearGradient>
    <linearGradient id="linear-gradient-35" x1="0.773" y1="0.21" x2="-0.151" y2="0.777" xlink:href="#linear-gradient-34"/>
    <linearGradient id="linear-gradient-36" x1="0.467" y1="0.19" x2="0.682" y2="0.907" xlink:href="#linear-gradient-3"/>
    <linearGradient id="linear-gradient-37" x1="0.472" y1="0.6" x2="0.536" y2="0.458" xlink:href="#linear-gradient-3"/>
    <linearGradient id="linear-gradient-38" x1="0.431" y1="0.163" x2="0.661" y2="0.931" xlink:href="#linear-gradient-3"/>
    <linearGradient id="linear-gradient-39" x1="0.558" y1="0.429" x2="0.305" y2="0.659" xlink:href="#linear-gradient-31"/>
    <linearGradient id="linear-gradient-40" x1="0.597" y1="0.241" x2="0.312" y2="0.78" xlink:href="#linear-gradient-20"/>
    <linearGradient id="linear-gradient-41" x1="0.653" y1="0.688" x2="0.447" y2="0.386" xlink:href="#linear-gradient-22"/>
    <linearGradient id="linear-gradient-42" x1="0.493" y1="0.559" x2="0.654" y2="0.222" xlink:href="#linear-gradient"/>
    <linearGradient id="linear-gradient-43" x1="0.474" y1="0.181" x2="0.541" y2="0.99" xlink:href="#linear-gradient"/>
    <linearGradient id="linear-gradient-44" x1="0.501" y1="0.117" x2="0.499" y2="0.79" xlink:href="#linear-gradient-7"/>
    <linearGradient id="linear-gradient-45" x1="0.714" y1="0.667" x2="0.149" y2="0.226" xlink:href="#linear-gradient-6"/>
    <linearGradient id="linear-gradient-46" x1="0.289" y1="0.243" x2="0.596" y2="0.617" xlink:href="#linear-gradient-3"/>
    <linearGradient id="linear-gradient-47" x1="0.44" y1="0.199" x2="0.716" y2="0.924" xlink:href="#linear-gradient-7"/>
  </defs>
  <g id="Group_39188" data-name="Group 39188" transform="translate(0 8.411)">
    <g id="Group_39190" data-name="Group 39190" transform="translate(21.018 1.378)">
      <path id="Path_68314" data-name="Path 68314" d="M83.232,0c45.968,0,83.232,37.493,83.232,83.743S129.2,167.485,83.232,167.485,0,129.992,0,83.743,37.264,0,83.232,0Z" transform="translate(5.029 -9.79)" opacity="0.291" fill="url(#linear-gradient)"/>
    </g>
    <g id="Group_39187" data-name="Group 39187" transform="translate(53.109)">
      <g id="Group_11" data-name="Group 11" transform="translate(46.376 0)">
        <g id="Group_8" data-name="Group 8">
          <path id="Path_13" data-name="Path 13" d="M1500.2,1342.506l-42.6-24.329c-1.581-.722-3.9-1.4-5.454-.459l-3.967,2.417c-.8.486-3.423,2.1-1.667,3.055,5.164,2.808,38.162,22.088,43.406,24.941a7.359,7.359,0,0,0,3.966.608,9.967,9.967,0,0,0,4.3-1.279l1.585-.977c1.12-.691,1.741-1.446,1.8-2.17C1501.622,1343.6,1501.167,1342.949,1500.2,1342.506Z" transform="translate(-1445.918 -1214.295)" fill="#9871d0" fill-rule="evenodd" opacity="0.5" style="mix-blend-mode: multiply;isolation: isolate"/>
          <g id="Group_7" data-name="Group 7" transform="translate(0.497)">
            <path id="Path_14" data-name="Path 14" d="M1521.913,218.471c-.006,2.074-.745,3.533-1.927,4.22l-1.876,1.128c-6.434-2.746-4.046-35.353-4.438-44.622l1.976-48.648c-1.661-2.9-8.052-5.436-6.56-11.364l-18.858-8.828c-.837-.569-22.844-13.314-18.894-15.7.661-.4,1.315-.8,1.967-1.181,1.458-.863,3.317-.329,4.682.458h0l37.524,21.523a14.476,14.476,0,0,1,6.561,11.363Z" transform="translate(-1469.26 -93.03)" fill="#5c041d" fill-rule="evenodd"/>
            <path id="Path_15" data-name="Path 15" d="M1451.985,111.669c.005-2.033.71-3.476,1.85-4.179,1.2-.741,2.888-.661,4.753.416l37.524,21.523a14.472,14.472,0,0,1,6.56,11.364l-.156,91.655c-.012,4.173-2.972,5.86-6.6,3.763l-37.524-21.523a14.465,14.465,0,0,1-6.561-11.363Z" transform="translate(-1451.828 -105.828)" fill="#8b0329" fill-rule="evenodd"/>
            <path id="Path_16" data-name="Path 16" d="M1476.034,162.57c.011-3.841,2.731-5.4,6.078-3.464l34.538,19.809a13.32,13.32,0,0,1,6.038,10.459l-.144,86.091c-.011,3.841-2.735,5.394-6.078,3.464l-34.537-19.81a13.313,13.313,0,0,1-6.038-10.459Z" transform="translate(-1473.866 -152.789)" fill-rule="evenodd" fill="url(#linear-gradient)"/>
          </g>
        </g>
        <g id="Group_10" data-name="Group 10" transform="translate(17.415 35.779)">
          <path id="Path_17" data-name="Path 17" d="M1678.979,531.5a10.483,10.483,0,0,1-4.756-8.238c.009-3.028,2.152-4.249,4.787-2.728a10.481,10.481,0,0,1,4.756,8.238c-.008,3.028-2.151,4.25-4.787,2.728Zm0,1.283c3.252,1.878,5.9.369,5.907-3.367a12.936,12.936,0,0,0-5.869-10.166c-3.251-1.877-5.9-.37-5.907,3.367A12.936,12.936,0,0,0,1678.976,532.785Z" transform="translate(-1671.415 -518.445)" fill-rule="evenodd" fill="url(#linear-gradient-3)"/>
          <g id="Group_9" data-name="Group 9" transform="translate(0 15.843)">
            <path id="Path_18" data-name="Path 18" d="M1695.677,707.209c0-.349.248-.487.552-.306l6.878,3.886a1.236,1.236,0,0,1,.549.961v.691c0,.349-.249.486-.553.306l-6.878-3.886a1.235,1.235,0,0,1-.549-.96Z" transform="translate(-1692.087 -706.824)" fill="#fff" fill-rule="evenodd"/>
            <path id="Path_19" data-name="Path 19" d="M1652.99,721.091c0-.308.219-.429.487-.269,3.9,2.2,10.29,5.8,14.189,8a1.089,1.089,0,0,1,.484.846v.609c0,.308-.219.429-.487.269-3.9-2.2-10.29-5.8-14.189-8a1.088,1.088,0,0,1-.484-.846Z" transform="translate(-1652.99 -719.58)" fill="#fff" fill-rule="evenodd" opacity="0.5"/>
          </g>
        </g>
      </g>
      <g id="Group_14" data-name="Group 14" transform="translate(80.678 10.954)">
        <g id="Group_12" data-name="Group 12" transform="translate(6.437 2.6)">
          <path id="Path_20" data-name="Path 20" d="M1950.724,289.109l-20.413-11.863,4.739-22.493v-.018h0l0-.007v-.014l0-.007h0l0-.007v-.008l0-.007h0l0-.008v-.008l0-.006v0l0-.008h0l0-.007v0l0,0,0-.009h0l0-.009,0,0,0-.005,0-.008v0l0-.009v0l0-.007,0-.006,0,0,0-.009h0l0-.009,0,0,0,0,0-.009h0l0-.01v0l0-.006,0-.007v0l0-.01v0l0-.008,0-.005,0,0,0-.01h0l0-.01,0,0,0-.006,0-.008v0l.005-.009v0l0-.007,0-.006,0,0,.006-.009h0l.005-.008,0,0,0,0,.005-.008h0l.006-.009,0,0,0-.006.007-.009.007-.008h0l.005-.007,0,0,0,0,.007-.008.008-.008,0,0,0,0,.006-.006h0l.008-.007,0,0,.006-.005.005,0,0,0,.008-.007h0l.008-.006,0,0,0,0,.008-.005h0l.009-.005,0,0,.006,0a.336.336,0,0,1,.3-.014l20.411,11.862C1955.4,265.715,1952.687,282.476,1950.724,289.109Z" transform="translate(-1930.311 -254.19)" fill="#5c041d" fill-rule="evenodd"/>
          <path id="Path_21" data-name="Path 21" d="M1935.049,260.892c8.573,9.825,18.8,15.892,17.8,24.419l-2.126,9.937-20.413-11.863Z" transform="translate(-1930.31 -260.328)" fill-rule="evenodd" fill="url(#linear-gradient-3)"/>
        </g>
        <g id="Group_13" data-name="Group 13" transform="translate(4.696)">
          <path id="Path_22" data-name="Path 22" d="M1931.482,238.538l-.461,22.812-21.409-12.359.064-22.615Z" transform="translate(-1909.612 -226.116)" fill="#f2f4ff" fill-rule="evenodd"/>
          <path id="Path_23" data-name="Path 23" d="M2164.234,370.505l.447-.26-.064,22.616-.447.258Z" transform="translate(-2142.761 -357.885)" fill="#c5dbf1" fill-rule="evenodd"/>
          <path id="Path_24" data-name="Path 24" d="M1910.369,223.54l.449-.26,21.407,12.36-.447.26Z" transform="translate(-1910.306 -223.28)" fill="#dce8f8" fill-rule="evenodd"/>
          <path id="Path_25" data-name="Path 25" d="M1939.386,280.886l0,1.426-19.815-11.441,0-1.426,19.816,11.44Zm.044-16.4,0,1.426-19.816-11.44,0-1.426,19.813,11.44Zm-.006,2.341-19.813-11.44,0,1.426,19.813,11.44,0-1.426Zm-.006,2.343-19.815-11.44,0,1.426,19.813,11.439,0-1.426Zm-.006,2.343-19.815-11.44,0,1.426,19.815,11.44,0-1.426Zm-.006,2.342-19.815-11.44,0,1.426,19.816,11.44,0-1.426Zm-.006,2.343-19.816-11.44,0,1.426,19.815,11.44,0-1.426Zm-.006,2.343-19.815-11.44,0,1.426,19.815,11.44Z" transform="translate(-1918.729 -250.545)" fill="#c5dbf1" fill-rule="evenodd"/>
        </g>
        <path id="Path_26" data-name="Path 26" d="M1875.1,304.609l4.866,17.112h0a2.054,2.054,0,0,0,.3.544l-20.411-11.861a.811.811,0,0,1-.3-.544l-4.866-17.113,0,0-.912-3.208a.831.831,0,0,1,.176-.58c.848.772,5.374,3.542,6.208,4.033,1.4,1.1,1.446,2.448,3.563,4.693a3.665,3.665,0,0,0,1.047.839Z" transform="translate(-1853.77 -283.438)" fill-rule="evenodd" fill="url(#linear-gradient-5)"/>
        <path id="Path_27" data-name="Path 27" d="M2107.469,401.344a.6.6,0,0,1,.1-.074c.159-.091.3-.052.351.105l4.82,16.974,4.738-22.493a.8.8,0,0,1,.346-.507.445.445,0,0,1,.1-.042c.2-.052.31.115.255.367l-4.766,22.643a3.388,3.388,0,0,1-.289.886,1.017,1.017,0,0,1-.384.433.332.332,0,0,1-.378.009,1.015,1.015,0,0,1-.276-.529L2107.217,402A.748.748,0,0,1,2107.469,401.344Z" transform="translate(-2085.89 -380.832)" fill="#5c041d" fill-rule="evenodd"/>
        <path id="Path_28" data-name="Path 28" d="M1865.41,295.683l10.3,5.983c-.268-.131-.679.471-.608.757l-10.4-6.042a6.41,6.41,0,0,1-.867-.561c-1.478-1.167-2.176-2.767-3.141-4.061a4.145,4.145,0,0,0-.828-.838c-.257-.14-.392-.214-.347-.192l-5.738-3.378a.835.835,0,0,1,.177-.576c.109-.115.278-.258.433-.177l5.749,3.384c-.046-.022.09.052.347.192a4.14,4.14,0,0,1,.828.838c1.022,1.369,1.753,2.908,3.41,4.214A5.421,5.421,0,0,0,1865.41,295.683Z" transform="translate(-1853.771 -281.252)" fill="#5c041d" fill-rule="evenodd"/>
      </g>
      <g id="Group_21" data-name="Group 21" transform="translate(30.163 5.303)">
        <path id="Path_29" data-name="Path 29" d="M1454.46,270.028c4.758,2.78,9.516,5.557,14.28,8.289a3.794,3.794,0,0,1,1.72,2.979l.049,39.982c0,1.094-.779,1.536-1.731.986-5.164-2.962-10.323-5.977-15.482-8.991l.024-4.12Z" transform="translate(-1436.461 -260.445)" fill-rule="evenodd" opacity="0.5" fill="url(#linear-gradient-6)" style="mix-blend-mode: multiply;isolation: isolate"/>
        <g id="Group_15" data-name="Group 15">
          <path id="Path_30" data-name="Path 30" d="M1258.867,156.55l.793-.419a1.26,1.26,0,0,1,1.01.179c9.482,5.439,18.946,11.069,28.429,16.508a3.562,3.562,0,0,1,1.615,2.8l.047,37.538a1.185,1.185,0,0,1-.4.991c-.3.221-.914.7-1.4.417-9.483-5.439-18.771-11.553-28.252-16.991a3.56,3.56,0,0,1-1.615-2.8Z" transform="translate(-1258.385 -156.088)" fill="#f2f4ff" fill-rule="evenodd"/>
          <path id="Path_31" data-name="Path 31" d="M1253.135,161.493c0-1.028.73-1.443,1.625-.926,9.483,5.439,18.946,11.069,28.429,16.508a3.562,3.562,0,0,1,1.615,2.8l.047,37.538c0,1.027-.732,1.442-1.626.926-9.483-5.439-18.947-11.07-28.429-16.508a3.56,3.56,0,0,1-1.615-2.8Z" transform="translate(-1253.135 -159.987)" fill="#fff" fill-rule="evenodd"/>
        </g>
        <g id="Group_20" data-name="Group 20" transform="translate(1.927 6.537)">
          <g id="Group_16" data-name="Group 16" transform="translate(0.173)">
            <path id="Path_32" data-name="Path 32" d="M1280.219,233.884a4.009,4.009,0,0,1,2.583,3.417c.134,1.545-.805,2.521-2.1,2.179a4.009,4.009,0,0,1-2.583-3.417C1277.986,234.518,1278.926,233.543,1280.219,233.884Z" transform="translate(-1278.108 -233.816)" fill="#6d6afd" fill-rule="evenodd" opacity="0.2"/>
            <path id="Path_33" data-name="Path 33" d="M1292.14,249.558a2.162,2.162,0,0,1,1.392,1.842c.072.833-.434,1.359-1.131,1.175a2.162,2.162,0,0,1-1.393-1.842C1290.937,249.9,1291.443,249.374,1292.14,249.558Z" transform="translate(-1289.918 -248.201)" fill-rule="evenodd" fill="url(#linear-gradient-7)"/>
            <path id="Path_34" data-name="Path 34" d="M1342.345,267.671c0-.327.232-.456.518-.286l8.637,4.9a1.156,1.156,0,0,1,.514.9v.647c0,.327-.233.456-.518.286l-8.637-4.9a1.156,1.156,0,0,1-.514-.9Z" transform="translate(-1336.943 -264.493)" fill="#6d6afd" fill-rule="evenodd" opacity="0.2"/>
            <path id="Path_35" data-name="Path 35" d="M1342.345,297.589c0-.193.137-.269.306-.169l5.1,2.893a.683.683,0,0,1,.3.531v.382c0,.193-.138.269-.306.169l-5.1-2.893a.683.683,0,0,1-.3-.531Z" transform="translate(-1336.943 -292.031)" fill="#6d6afd" fill-rule="evenodd" opacity="0.2"/>
          </g>
          <g id="Group_19" data-name="Group 19" transform="translate(0 10.358)">
            <g id="Group_18" data-name="Group 18">
              <g id="Group_17" data-name="Group 17" transform="translate(3.084 7.987)">
                <path id="Path_36" data-name="Path 36" d="M1312.722,461.01l5.5-9.079,2.776,10.081,2.82-3.433,3.514,10.808Z" transform="translate(-1312.722 -451.932)" fill-rule="evenodd" fill="url(#linear-gradient-8)"/>
                <path id="Path_37" data-name="Path 37" d="M1418.159,459.313a2.292,2.292,0,0,1,1.508,1.97c.078.9-.471,1.48-1.225,1.293a2.291,2.291,0,0,1-1.509-1.97C1416.855,459.7,1417.4,459.126,1418.159,459.313Z" transform="translate(-1408.162 -458.66)" fill="#ffdb59" fill-rule="evenodd"/>
              </g>
              <path id="Path_38" data-name="Path 38" d="M1276.1,358.5c0-1.366.971-1.919,2.161-1.232l17.66,10.014a4.737,4.737,0,0,1,2.147,3.72l-.051,14.579c0,1.366-.973,1.918-2.161,1.232L1278.2,376.8a4.734,4.734,0,0,1-2.147-3.719Z" transform="translate(-1276.048 -356.97)" fill-rule="evenodd" opacity="0.2" fill="url(#linear-gradient-9)"/>
            </g>
            <path id="Path_39" data-name="Path 39" d="M1571.064,524.911c0-1.366.971-1.919,2.161-1.232l2.805,1.591-.03,19.551-2.841-1.611a4.734,4.734,0,0,1-2.147-3.719Z" transform="translate(-1546.206 -509.388)" fill-rule="evenodd" opacity="0.2" fill="url(#linear-gradient-10)"/>
          </g>
        </g>
      </g>
      <g id="Group_23" data-name="Group 23" transform="translate(39.014 59.024)">
        <path id="Path_40" data-name="Path 40" d="M1452.219,845l24.127,12.919c2.167,1.251,3.256,5.031,3.249,7.522l-.094,12.5c-.007,2.491-1.773,3.5-3.941,2.246l-23.433-13.644Z" transform="translate(-1444.243 -840.777)" fill-rule="evenodd" opacity="0.5" fill="url(#linear-gradient-11)" style="mix-blend-mode: multiply;isolation: isolate"/>
        <g id="Group_22" data-name="Group 22">
          <path id="Path_41" data-name="Path 41" d="M1365.427,797.524c0-.838-.294-1.358.065-1.816a3.983,3.983,0,0,1,1.36-.761,2.9,2.9,0,0,1,2.376.41l25.979,15.125a8.332,8.332,0,0,1,3.777,6.542l-.09,12.061a3.1,3.1,0,0,1-.729,2.222,3.251,3.251,0,0,1-1.651.789c-.544.044-.755-.459-1.422-.844l-25.978-15.125a8.328,8.328,0,0,1-3.777-6.542Z" transform="translate(-1364.731 -794.837)" fill="#f2f4ff" fill-rule="evenodd"/>
          <path id="Path_42" data-name="Path 42" d="M1358.472,801.755c.007-2.4,1.708-3.375,3.8-2.167l25.978,15.125a8.332,8.332,0,0,1,3.777,6.542l-.09,12.061c-.007,2.4-1.711,3.374-3.8,2.167l-25.978-15.125a8.327,8.327,0,0,1-3.777-6.542Z" transform="translate(-1358.382 -798.713)" fill-rule="evenodd" fill="url(#linear-gradient-12)"/>
          <path id="Path_43" data-name="Path 43" d="M1380.742,888.567c2.533.67,4.8,3.668,5.062,6.7s-1.579,4.94-4.112,4.27-4.8-3.669-5.062-6.7S1378.208,887.9,1380.742,888.567Z" transform="translate(-1375.072 -880.561)" fill="#fff" fill-rule="evenodd" opacity="0.2"/>
          <path id="Path_44" data-name="Path 44" d="M1404.109,919.288a4.237,4.237,0,0,1,2.729,3.611c.141,1.633-.852,2.664-2.217,2.3a4.237,4.237,0,0,1-2.729-3.611c-.141-1.633.851-2.664,2.217-2.3Zm.12,1.386c-.726-.192-1.253.356-1.178,1.223a2.251,2.251,0,0,0,1.45,1.918c.726.192,1.253-.356,1.178-1.223A2.251,2.251,0,0,0,1404.229,920.674Z" transform="translate(-1398.22 -908.755)" fill="#fff" fill-rule="evenodd"/>
          <path id="Path_45" data-name="Path 45" d="M1502.506,954.788c0-.641.456-.893,1.014-.561l16.928,9.6a2.268,2.268,0,0,1,1.008,1.763v1.269c0,.641-.456.893-1.015.561l-16.928-9.6a2.266,2.266,0,0,1-1.008-1.763Z" transform="translate(-1490.385 -940.687)" fill="#fff" fill-rule="evenodd" opacity="0.2"/>
          <path id="Path_46" data-name="Path 46" d="M1502.506,1013.425c0-.379.269-.527.6-.332l10,5.67a1.338,1.338,0,0,1,.6,1.041v.749c0,.379-.27.527-.6.331l-10-5.67a1.339,1.339,0,0,1-.6-1.041Z" transform="translate(-1490.385 -994.659)" fill="#fff" fill-rule="evenodd" opacity="0.2"/>
        </g>
      </g>
      <g id="Group_33" data-name="Group 33" transform="translate(74.56 81.443)">
        <path id="Path_47" data-name="Path 47" d="M1808.391,1753.759l-14.506-8.262c-1.582-.722-3.845-1.3-5.456-.459-1.468.764-3.886,2.328-4.956,2.938-.812.463-3.632,2.152-1.876,3.107,5.166,2.809,10.278,5.968,15.524,8.822a7.36,7.36,0,0,0,3.967.608,10.506,10.506,0,0,0,4.3-1.28l2.573-1.5a3.135,3.135,0,0,0,1.8-2.17C1809.816,1754.858,1809.362,1754.2,1808.391,1753.759Z" transform="translate(-1781.032 -1687.162)" fill="#9871d0" fill-rule="evenodd" opacity="0.5" style="mix-blend-mode: multiply;isolation: isolate"/>
        <g id="Group_24" data-name="Group 24" transform="translate(13.634 63.122)">
          <path id="Path_48" data-name="Path 48" d="M1951.488,1835.624c-.328-.007-1.437-1.049-2.487-.523-1.261.632-3.655.072-4.862.362-.215.052-.636-.107-.719.041-.261.463-.512,1.155.128,1.608a10.945,10.945,0,0,0,2.141,1.009,18.062,18.062,0,0,0,2.708.767,3.5,3.5,0,0,1,1.633.455,2.376,2.376,0,0,0,1.245.3,2.1,2.1,0,0,0,1.588-1.108,4.745,4.745,0,0,0-.012-1.758,8.913,8.913,0,0,0-.562-1.534Z" transform="translate(-1943.145 -1833.016)" fill="#fff" fill-rule="evenodd"/>
          <path id="Path_49" data-name="Path 49" d="M2011.694,1812.3c.4.957.276,2.439,1.221,2.953a1.4,1.4,0,0,0,2.052-.635c.24-.547-.079-1.483-.008-2.685Z" transform="translate(-2005.929 -1811.934)" fill="#ffa495" fill-rule="evenodd"/>
          <path id="Path_50" data-name="Path 50" d="M1949.914,1825.031c-.725.21-2.724.07-3.988.172-.544.044-1.031.04-1.285.533-.234.454-.111.843.418,1.217a8.959,8.959,0,0,0,1.931.948,18.111,18.111,0,0,0,2.708.766,3.5,3.5,0,0,1,1.632.454,2.375,2.375,0,0,0,1.245.3,2.192,2.192,0,0,0,1.588-1.178,4.366,4.366,0,0,0-.012-1.688,3.142,3.142,0,0,0-.093-.357c-.1-.952-.414-1.336-.709-1.174a1.833,1.833,0,0,0-.713.954.932.932,0,0,1-.551.525,1.088,1.088,0,0,1-1.214-.534,3.424,3.424,0,0,1-.333-.964c0-.033,0-.065,0-.1-.095-.832-.5-.759-.438-.584A.716.716,0,0,1,1949.914,1825.031Z" transform="translate(-1944.412 -1823.182)" fill="#193161" fill-rule="evenodd"/>
          <path id="Path_51" data-name="Path 51" d="M1944.266,1839.423c.01.322-.483.352-.341.917-.237-.232.094-.9.24-1C1944.226,1839.3,1944.277,1839.281,1944.266,1839.423Z" transform="translate(-1943.784 -1837.008)" fill="#fff" fill-rule="evenodd"/>
        </g>
        <g id="Group_25" data-name="Group 25" transform="translate(5.834 59.225)">
          <path id="Path_52" data-name="Path 52" d="M1858.309,1771.963c-.306-.12-.989-1.479-2.155-1.347a5.938,5.938,0,0,1-2-.287c-1.225-.348-2.931-1.443-3.222-1.264a1.145,1.145,0,0,0-.24,1.748,8.952,8.952,0,0,0,1.487,1.554,15.721,15.721,0,0,0,2.1,1.6c.674.374.9.341,1.377.989a2.251,2.251,0,0,0,1.066.675,2.536,2.536,0,0,0,2.083-.782,4.315,4.315,0,0,0,.378-2.6Z" transform="translate(-1850.405 -1768.755)" fill="#fff" fill-rule="evenodd"/>
          <path id="Path_53" data-name="Path 53" d="M1922.26,1765.594c.019,1.037-.64,2.37.05,3.2a1.406,1.406,0,0,0,2.142.164c.425-.421.472-1.408.98-2.5Z" transform="translate(-1915.974 -1765.594)" fill="#ffa495" fill-rule="evenodd"/>
          <path id="Path_54" data-name="Path 54" d="M1855.9,1768.706c-.07-.018-.139-.037-.209-.057-1.225-.348-2.861-1.192-3.152-1.012a.91.91,0,0,0-.31,1.5,8.944,8.944,0,0,0,1.488,1.554,15.715,15.715,0,0,0,2.1,1.6c.673.374.9.34,1.376.989a2.254,2.254,0,0,0,1.066.675,2.6,2.6,0,0,0,2.113-.786,6.248,6.248,0,0,0,.43-1.8c.1-.922.038-1.391-.363-1.38a2.227,2.227,0,0,0-1.363.607c-.664.414-1.109-.121-1.217-.783a3.87,3.87,0,0,1,.061-.874c.011-.031.022-.062.034-.091.218-.808-.186-.889-.193-.7a.693.693,0,0,1-.616.706A5.423,5.423,0,0,1,1855.9,1768.706Z" transform="translate(-1851.83 -1767.442)" fill="#193161" fill-rule="evenodd"/>
          <path id="Path_55" data-name="Path 55" d="M1851.895,1767.8c-.13.295-.587.11-.7.681-.114-.312.472-.77.647-.8C1851.912,1767.668,1851.965,1767.674,1851.895,1767.8Z" transform="translate(-1851.113 -1767.5)" fill="#fff" fill-rule="evenodd"/>
        </g>
        <path id="Path_56" data-name="Path 56" d="M1975.949,1190.108c-2.436,2.826-2.472,3.046-7.229,5.841l-.905-1.781a23.628,23.628,0,0,1,4.147-6.25,24.161,24.161,0,0,1-4.876-4.587c-3.1-4.141-1.38-7.019,1.3-6.436,2.338.508,5.986,6.561,7.969,9.973C1977.182,1188.29,1977.382,1188.445,1975.949,1190.108Z" transform="translate(-1949.918 -1167.112)" fill-rule="evenodd" fill="url(#linear-gradient-13)"/>
        <path id="Path_57" data-name="Path 57" d="M1971.471,1188.211a23.972,23.972,0,0,1-4.074-4c-3.1-4.142-1.29-6.937,1.391-6.354C1970.186,1178.288,1972.681,1181.247,1971.471,1188.211Z" transform="translate(-1950.229 -1167.995)" fill="#17acc8" fill-rule="evenodd" opacity="0.35" style="mix-blend-mode: multiply;isolation: isolate"/>
        <g id="Group_26" data-name="Group 26" transform="translate(11.398 28.048)">
          <path id="Path_58" data-name="Path 58" d="M1917.986,1398.067c-.268,3.005-1.774,12.6-1.355,15.238.63,3.962.451,8.749.443,12.954.107,1.767,2.536,2.69,3.243,1.567.568-3.758,1.375-7.05,1.7-9.138a15.138,15.138,0,0,0-.347-6.716,79.976,79.976,0,0,1,2.344-9.011c.345-1.083,2.3-4.582.276-8.06Z" transform="translate(-1916.557 -1394.902)" fill-rule="evenodd" fill="url(#linear-gradient-14)"/>
          <path id="Path_59" data-name="Path 59" d="M1922.223,1754.339c0,.312.01.787.009,1.093.106,1.767,2.566,2.725,3.273,1.6.042-.277.1-.551.147-.823C1924.7,1757.236,1922.838,1755.905,1922.223,1754.339Z" transform="translate(-1921.746 -1724.109)" fill-rule="evenodd" fill="url(#linear-gradient-15)"/>
          <path id="Path_60" data-name="Path 60" d="M1916.657,1454.781c.792,3.973,3.032,9.281,4.256,13.276.637-3.423,2.23-9.253.852-12.82.139-.956.57-2.772,1.092-4.714-1.061-2.01-.047-3.614-.548-6.445-2.807-.489,1.43-3.915-4.51-.307A102.757,102.757,0,0,0,1916.657,1454.781Z" transform="translate(-1916.649 -1438.166)" fill="#1e2353" fill-rule="evenodd" opacity="0.3" style="mix-blend-mode: multiply;isolation: isolate"/>
        </g>
        <g id="Group_27" data-name="Group 27" transform="translate(8.297 29.87)">
          <path id="Path_61" data-name="Path 61" d="M1884.409,1435.123c1.619,3.666,4.607,10.857,6.2,15.356.822,1.195,3.753,1.071,3.748-.044-.647-3.761-1.408-9.563-2.758-12.862a29.568,29.568,0,0,0-2.488-4.16c-.427-1.66-.963-6.144-1.376-8.57.37-2.008,1.99-5.365-1.121-8.282-1.255.893-5.137,1.451-6.9.457C1879.429,1424.948,1881.375,1428.255,1884.409,1435.123Z" transform="translate(-1879.686 -1416.56)" fill-rule="evenodd" fill="url(#linear-gradient-16)"/>
          <path id="Path_62" data-name="Path 62" d="M2005.6,1810.533c.071.2.212.594.278.782.847,1.23,3.864,1.1,3.858-.045q-.048-.279-.1-.572C2008.925,1811.431,2006.749,1811.441,2005.6,1810.533Z" transform="translate(-1995.015 -1777.399)" fill-rule="evenodd" fill="url(#linear-gradient-17)"/>
        </g>
        <path id="Path_63" data-name="Path 63" d="M1873.634,1187.424c-.261,2.356.447,4.673-.274,6.823-.032.222-.053,1.094-.091,1.331-.475,2.786-6.368,5.605-11.283,2.932-.027-.345,0-.706-.023-1.346a7.612,7.612,0,0,0-.165-1.6c.007-1.516.479-2.291.252-3.979-.46-3.432-2.362-6.731-1.31-9.432a2.871,2.871,0,0,1,1.069-1.22c1.161-.933,7.169-3.992,8.99-4.208C1876.088,1176.037,1873.918,1184.868,1873.634,1187.424Z" transform="translate(-1853.75 -1166.989)" fill-rule="evenodd" fill="url(#linear-gradient-18)"/>
        <g id="Group_28" data-name="Group 28" transform="translate(9.238)">
          <path id="Path_64" data-name="Path 64" d="M1891.539,1079.494c.335.166,2.031-.075,1.982.077-.025.759-.251,1.22-.324,2.26,1.866-.261,4.314-.53,4.411-1.961-.008-.115-.015-.229-.019-.342,0-.013,0-.026-.007-.039h.005a2.538,2.538,0,0,1,.15-1.226,9.448,9.448,0,0,0,1.495-2.319,3.933,3.933,0,0,0-1.151-4.414c-2.636-2.093-6.006-.6-6.86,2.457-.166.6.3.922.288,1.433,0,.1-.136.2-.243.426C1891.118,1076.153,1891.129,1079.291,1891.539,1079.494Z" transform="translate(-1891.153 -1069.785)" fill="#e7a376" fill-rule="evenodd"/>
          <path id="Path_65" data-name="Path 65" d="M1891.611,1079.477c.334.166,2.014-.058,1.964.094-.024.759-.25,1.22-.324,2.26,1.084.266,4.006-.123,4.443-1.768a10.145,10.145,0,0,1,.1-1.8,9.466,9.466,0,0,0,1.495-2.319,3.933,3.933,0,0,0-1.151-4.414c-2.635-2.093-6.006-.6-6.86,2.457-.167.6.3.922.288,1.433,0,.1-.136.2-.243.426C1891.172,1076.153,1891.2,1079.274,1891.611,1079.477Z" transform="translate(-1891.208 -1069.785)" fill-rule="evenodd" fill="url(#linear-gradient-19)"/>
          <path id="Path_66" data-name="Path 66" d="M1891.677,1079.494a2.711,2.711,0,0,0,1.456-.177,2.548,2.548,0,0,0,.646-.449c.226-.091.728-.8-.05-1.938-.758-1.106,3.834,1.725,4.077,1.332a9.457,9.457,0,0,0,1.495-2.319,3.934,3.934,0,0,0-1.151-4.414c-2.636-2.093-6.006-.6-6.86,2.457-.167.6.3.922.288,1.433,0,.1-.136.2-.243.426C1891.186,1076.153,1891.274,1079.278,1891.677,1079.494Z" transform="translate(-1891.222 -1069.785)" fill-rule="evenodd" fill="url(#linear-gradient-20)"/>
          <path id="Path_67" data-name="Path 67" d="M1918.736,1144.887c.944-.88,1.856,1.92.336,1.89A1.306,1.306,0,0,0,1918.736,1144.887Z" transform="translate(-1916.392 -1137.708)" fill="#ffa698" fill-rule="evenodd"/>
          <path id="Path_68" data-name="Path 68" d="M1918.109,1146.183c-.142-.392-.022-.534.15-.492a1.114,1.114,0,0,1,.6.724c.225.654-.1,1.481-.73,1.158.543.031.493-.624.33-1.028C1918.346,1146.271,1918.175,1146.076,1918.109,1146.183Z" transform="translate(-1915.761 -1138.595)" fill="#ffb49c" fill-rule="evenodd"/>
          <path id="Path_69" data-name="Path 69" d="M1919.874,1153.723c-.152.283-.2.451-.156.548.034.068.139.145.31-.021A.976.976,0,0,0,1919.874,1153.723Z" transform="translate(-1917.276 -1145.958)" fill="#ffa698" fill-rule="evenodd"/>
          <path id="Path_70" data-name="Path 70" d="M1892.282,1067.858l-.037-.019a1.616,1.616,0,0,1-.533-2.552c1.035-.918,3.844-.823,5.624.095,1.813.933,2.257,3.256,1.715,5.082-.361,1.215-1.238,1.849-1.677,2.769a1.1,1.1,0,0,1-1.116.407c-1.257-.26-1.548-1.586-2.3-2.169-.414-.32-.841-.406-1,.468-.03.384-.036.774-.064,1.127-.044.556.095.659-.376.85a4.227,4.227,0,0,1-1.48.3c-.117-.046-.11-.74-.088-1.257.047,0,.049.178.073.174.046-.007.1-.018.169-.025a2.016,2.016,0,0,0-.075-.629.993.993,0,0,0-.207-.472.8.8,0,0,1-.025-.407,1.282,1.282,0,0,1,.538.759,3.813,3.813,0,0,1,.139.689,1.308,1.308,0,0,0,.644-.211,2.448,2.448,0,0,0,.407-1.289,2.413,2.413,0,0,0-.572-1.992c-.152-.216-.159-.658.216-1.643A.594.594,0,0,0,1892.282,1067.858Z" transform="translate(-1890.874 -1064.371)" fill-rule="evenodd" fill="url(#linear-gradient-21)"/>
          <path id="Path_71" data-name="Path 71" d="M1895.819,1064.275c.391.49,2.071-.643,4.422-.21-.5-1.553-.794-1.883-1.5-2.337a2.317,2.317,0,0,0-2.957.466A1.955,1.955,0,0,0,1895.819,1064.275Z" transform="translate(-1895.114 -1061.399)" fill-rule="evenodd" fill="url(#linear-gradient-22)"/>
        </g>
        <path id="Path_72" data-name="Path 72" d="M1905.263,1178.251c.51.157,1.023.661.929,1-.507,2.073-4.359,2.465-6.721,1.966-.028-.006.919-1.248,1.371-1.4C1902.33,1179.966,1904.8,1179.475,1905.263,1178.251Z" transform="translate(-1889.51 -1168.423)" fill="#6ad2a9" fill-rule="evenodd"/>
        <path id="Path_73" data-name="Path 73" d="M1870,1242.9c-.215-.937-1.517-7.05-1.794-8.15-.554-2.2-1.006-4.493-.454-5.912.659-1.937,3.714-.171,4.153,2.438C1872.434,1234.392,1876.152,1243.163,1870,1242.9Z" transform="translate(-1860.232 -1214)" fill="#17acc8" fill-rule="evenodd" opacity="0.35" style="mix-blend-mode: multiply;isolation: isolate"/>
        <g id="Group_32" data-name="Group 32" transform="translate(3.055 13.887)">
          <path id="Path_74" data-name="Path 74" d="M1889.179,1540.564c.283.433.665.35.74.827a6.965,6.965,0,0,1-.657.333c-.115.023-.372-.195-.387-.307,0-.027.056-.38.056-.38Z" transform="translate(-1882.86 -1514.152)" fill="#e7a376" fill-rule="evenodd"/>
          <g id="Group_30" data-name="Group 30" transform="translate(0 14.197)">
            <g id="Group_29" data-name="Group 29">
              <path id="Path_75" data-name="Path 75" d="M1819.676,1396.074c0-.19-.149-.345-.083-.467s.366-.214.492-.254a.815.815,0,0,1,.649.118l9.97,5.754a2.319,2.319,0,0,1,1.051,1.821l-.025,7.14a.743.743,0,0,1-.3.672,1.215,1.215,0,0,1-.587.167c-.11-.019-.049-.164-.171-.235l-9.97-5.754a2.318,2.318,0,0,1-1.051-1.821Z" transform="translate(-1819.389 -1395.327)" fill-rule="evenodd" fill="url(#linear-gradient-23)"/>
              <path id="Path_76" data-name="Path 76" d="M1817.38,1397.2c0-.669.476-.94,1.058-.6l9.97,5.754a2.32,2.32,0,0,1,1.052,1.822l-.025,7.14c0,.669-.476.939-1.059.6l-9.97-5.754a2.318,2.318,0,0,1-1.052-1.822Z" transform="translate(-1817.355 -1396.355)" fill-rule="evenodd" fill="url(#linear-gradient-24)"/>
            </g>
            <path id="Path_77" data-name="Path 77" d="M1824.876,1410.4c0-.274.195-.385.433-.247l2.464,1.413a.95.95,0,0,1,.431.746l.012,2.711c0,.274-.2.385-.433.247l-2.464-1.413a.95.95,0,0,1-.431-.746Z" transform="translate(-1824.244 -1408.854)" fill-rule="evenodd" fill="url(#linear-gradient-25)"/>
            <path id="Path_78" data-name="Path 78" d="M1824.876,1464.888c0-.137.1-.191.217-.12l9.9,5.607a.488.488,0,0,1,.216.378v.272c0,.137-.1.191-.217.12l-9.9-5.607a.485.485,0,0,1-.216-.378Z" transform="translate(-1824.244 -1458.899)" fill="#fff" fill-rule="evenodd" opacity="0.5"/>
            <path id="Path_79" data-name="Path 79" d="M1824.876,1483.712c0-.138.1-.191.217-.12l9.9,5.607a.487.487,0,0,1,.216.378v.272c0,.137-.1.191-.217.12l-9.9-5.607a.485.485,0,0,1-.216-.377Z" transform="translate(-1824.244 -1476.14)" fill="#fff" fill-rule="evenodd" opacity="0.5"/>
          </g>
          <g id="Group_31" data-name="Group 31" transform="translate(2.712 22.583)">
            <path id="Path_80" data-name="Path 80" d="M1850.6,1495.04a4.151,4.151,0,0,1-.674,1.172c-.212.364-.353.563-.323.868a3.174,3.174,0,0,0,.488,1.753,10.514,10.514,0,0,0,3.2,1.214,2.45,2.45,0,0,1-.05-1.318,11.407,11.407,0,0,0,.495-1.076c.1-.452-.18-.976-.2-1.746Z" transform="translate(-1849.597 -1495.04)" fill="#e7a376" fill-rule="evenodd"/>
            <path id="Path_81" data-name="Path 81" d="M1882.445,1507.242c.286.082.545.149.743.192a2.451,2.451,0,0,1-.05-1.318,11.358,11.358,0,0,0,.495-1.076c.1-.452-.18-.976-.2-1.746l-.635-.188.016.116a4.726,4.726,0,0,1-.046,1.323c-.241.728-.465.813-.513,1.255A3.63,3.63,0,0,0,1882.445,1507.242Z" transform="translate(-1879.498 -1502.429)" fill="#f0b186" fill-rule="evenodd"/>
          </g>
          <path id="Path_82" data-name="Path 82" d="M1850.773,1230.6c.6,2.788,1.724,6.864,2.089,9.615l-1.266,8.537c.18,1.461,2.571,1.857,3.143,1.252l2.414-9.258c-.11-2.164-.794-8.253-1.03-10.316a5.024,5.024,0,0,0-1.96-3.6C1851.995,1225.6,1850.25,1228.187,1850.773,1230.6Z" transform="translate(-1847.877 -1226.518)" fill-rule="evenodd" fill="url(#linear-gradient-26)"/>
        </g>
      </g>
      <g id="Group_36" data-name="Group 36" transform="translate(36.528 87.754)">
        <path id="Path_83" data-name="Path 83" d="M1351.283,1317.862l-17.218-9.879a2.844,2.844,0,0,0-2.451-.206l-1.783,1.086c-.359.219-1.538.944-.75,1.373,2.321,1.262,15.225,8.871,17.582,10.153a3.311,3.311,0,0,0,1.782.273,4.476,4.476,0,0,0,1.93-.575l.712-.439c.5-.311.782-.65.809-.975S1351.72,1318.061,1351.283,1317.862Z" transform="translate(-1328.815 -1293.178)" fill="#9871d0" fill-rule="evenodd" opacity="0.5" style="mix-blend-mode: multiply;isolation: isolate"/>
        <g id="Group_35" data-name="Group 35" transform="translate(1.087)">
          <path id="Path_84" data-name="Path 84" d="M1501.169,1229.534c0-.494-.159-.379-.411-.59a.906.906,0,0,0-.115-.081l-3.784-2.1c-2.4-1.1-3.373,3.517-3.706,7.005l3.23,1.854,4.482-2.448Z" transform="translate(-1480.418 -1219.012)" fill="#d03286" fill-rule="evenodd"/>
          <path id="Path_85" data-name="Path 85" d="M1370.06,1210.5l.017-8-.072-2.572-15.748-9.313-.051,10.571a2.363,2.363,0,0,0,.1.72,1.554,1.554,0,0,0,.17.372,1.293,1.293,0,0,0,.113.151,1.128,1.128,0,0,0,.276.231l15.748,9.313C1370.2,1211.734,1370.056,1211.224,1370.06,1210.5Z" transform="translate(-1353.158 -1186.061)" fill="#e23b93" fill-rule="evenodd"/>
          <path id="Path_86" data-name="Path 86" d="M1446.361,1331.7l.73-.416-.02,2.671-.73.417-.025-1.526Z" transform="translate(-1437.52 -1314.893)" fill="#f1920e" fill-rule="evenodd"/>
          <path id="Path_87" data-name="Path 87" d="M1346.7,1136.667a1.765,1.765,0,0,0-.7-.217,3.3,3.3,0,0,0-2.083.89,6.127,6.127,0,0,0-1.2,1.386,6.013,6.013,0,0,0-.948,2.637c-.009.1-.014.207-.015.308l-.021,3.151,7.126,7.924,1.4.828,7.225.554.082-.07.049-1.461a14.066,14.066,0,0,1,.817-4.221c.612-1.108,2.69-3.126,4.012-2.4Z" transform="translate(-1341.738 -1136.448)" fill-rule="evenodd" fill="url(#linear-gradient-27)"/>
          <path id="Path_88" data-name="Path 88" d="M1446.361,1334.553l.27-.154-.02,2.671-.27.155-.025-1.526Z" transform="translate(-1437.52 -1317.75)" fill="#f1920e" fill-rule="evenodd"/>
          <path id="Path_89" data-name="Path 89" d="M1422.988,1320.194l1.2.811.8.4.27-.154-2.007-1.208Z" transform="translate(-1416.155 -1304.6)" fill="#ffd463" fill-rule="evenodd"/>
          <path id="Path_90" data-name="Path 90" d="M1422.768,1321.869l2.007,1.208-.02,2.671-2.007-1.208Z" transform="translate(-1415.934 -1306.275)" fill="#ffc426" fill-rule="evenodd"/>
          <g id="Group_34" data-name="Group 34" transform="translate(7.22 1.535)">
            <path id="Path_91" data-name="Path 91" d="M1436.023,1165.7c0-.036.009-.072.016-.106l0-.014c.007-.032.016-.064.026-.094l.005-.017a.861.861,0,0,1,.033-.083l0-.007a.79.79,0,0,1,.046-.082.629.629,0,0,1,.08-.1l.021-.02a.538.538,0,0,1,.1-.073l-1.085.619a.577.577,0,0,0-.1.073l-.021.02a.6.6,0,0,0-.08.1l0,0a.755.755,0,0,0-.043.078v0l0,.007c-.009.018-.016.036-.024.056s-.006.018-.009.027l-.006.017-.005.016c-.006.019-.011.038-.016.058s0,.014,0,.021,0,.009,0,.013,0,.014,0,.021-.006.036-.009.054,0,.02,0,.031a.069.069,0,0,1,0,.01s0,.009,0,.013,0,.035,0,.053,0,.036,0,.055a.013.013,0,0,1,0,0l-.006.578,1.085-.62.006-.578c0-.043,0-.084.007-.125Z" transform="translate(-1434.306 -1164.234)" fill="#f964b1" fill-rule="evenodd"/>
            <path id="Path_92" data-name="Path 92" d="M1436.145,1154.916l-.072-.037-.046-.023-.011-.005-.013-.006-.07-.03-.071-.027-.013,0-.011,0-.047-.016-.072-.021-.035-.008-.015,0-.021,0-.077-.013-.048-.005-.016,0-.015,0-.083,0-.036,0h-.055a1.021,1.021,0,0,0-.1.014h0l-.025.007a.914.914,0,0,0-.1.026l-.008,0a.838.838,0,0,0-.136.062l-1.085.62a1.79,1.79,0,0,1,1.274.255l.047-.033,2.144,1.259.007,0a3.747,3.747,0,0,1,1.642,2.658s.091-.054.091-.053h0v0h0v0h0v0h0v0h0v0h0v0h0v0h0v0h0v0h0v0h0v.006h0v0h0v0h0v0h0v0h0v0h0v0h0v0h0v0h0v.007h0v0h0v0h0v.006h0v0h0v0h0v0h0v.01h0v0h0v0h0v0h0v.02h0v0h0v0h0v.01h0v.029h0v0h0v0h0v0h0v.01h0v0h0v0h0v0h0v.019h0v0h0v0h0v0h0v.01h0v.006h0v.01h0v0h0v.013h0v.006h0v.022h0v.006h0v.051h0v.022h0v.025l-.006.579,1.085-.62.006-.579h0v0h0v-.005h0v-.011h0v0h0l0-.035v-.006h0c0-.02,0-.039,0-.059h0v-.008c0-.028-.006-.057-.009-.086h0q-.016-.136-.044-.269l-.008-.034,0-.02c0-.013-.006-.026-.009-.039a3.9,3.9,0,0,0-.206-.614,4.3,4.3,0,0,0-.467-.822s-.068-.091-.078-.1-.054-.073-.066-.082a3.407,3.407,0,0,0-.814-.724l-.017-.01-2.256-1.325Z" transform="translate(-1433.335 -1154.701)" fill="#fb85b6" fill-rule="evenodd"/>
            <path id="Path_93" data-name="Path 93" d="M1431.616,1163.64l-2.256-1.326c-.966-.568-1.762-.122-1.773.992l-.006.579.618.363.006-.578c.007-.721.523-1.01,1.148-.643l2.256,1.326a2.5,2.5,0,0,1,1.119,1.975l-.006.578.62.364.006-.578A3.873,3.873,0,0,0,1431.616,1163.64Z" transform="translate(-1427.58 -1161.448)" fill-rule="evenodd" fill="url(#linear-gradient-28)"/>
          </g>
          <path id="Path_94" data-name="Path 94" d="M1533.749,1249.936l-3.663,2.078-.051,10.571c-.007,1.455,1.018,2.048,2.288,1.327l.047-.027a5.026,5.026,0,0,0,2.312-3.937l.032-6.612.019-.011.019-3.855c.007-1.368-.74-2.11-1.794-1.971a4.338,4.338,0,0,0-2.806,1.682,6.21,6.21,0,0,0-1.144,3.5l-.021,3.144,1-.568.021-3.143a3.551,3.551,0,0,1,.459-1.621c.384-.709,1.759-2.2,2.768-1.613A1.206,1.206,0,0,1,1533.749,1249.936Z" transform="translate(-1513.238 -1238.145)" fill-rule="evenodd" fill="url(#linear-gradient-29)"/>
        </g>
      </g>
      <g id="Group_38" data-name="Group 38" transform="translate(32.144 69.534)">
        <path id="Path_95" data-name="Path 95" d="M1281.64,919.962c3.027.8,5.734,4.383,6.048,8s-1.886,5.9-4.913,5.1-5.735-4.383-6.048-8S1278.613,919.161,1281.64,919.962Z" transform="translate(-1276.697 -919.802)" fill-rule="evenodd" fill="url(#linear-gradient-3)"/>
      </g>
      <g id="Group_52" data-name="Group 52" transform="translate(0 35.612)">
        <path id="Path_98" data-name="Path 98" d="M895.894,1203.212l14.808-8.434c1.614-.738,3.925-1.325,5.57-.469,1.5.78,3.967,2.376,5.059,3,.829.473,3.707,2.2,1.915,3.172-5.273,2.867-10.492,6.092-15.847,9.005a7.512,7.512,0,0,1-4.049.621,10.721,10.721,0,0,1-4.386-1.306l-2.626-1.528a3.2,3.2,0,0,1-1.838-2.215C894.439,1204.334,894.9,1203.665,895.894,1203.212Z" transform="translate(-894.493 -1136.912)" fill="#9871d0" fill-rule="evenodd" opacity="0.5" style="mix-blend-mode: multiply;isolation: isolate"/>
        <g id="Group_51" data-name="Group 51" transform="translate(2.644)">
          <g id="Group_42" data-name="Group 42" transform="translate(12.651 9.299)">
            <g id="Group_40" data-name="Group 40" transform="translate(16.106 5.443)">
              <path id="Path_99" data-name="Path 99" d="M1271.65,693.067a2.353,2.353,0,0,1-.327-.077c.12-.016.218-.032.286-.046a9.777,9.777,0,0,0,1.33-.846c-.4-.809-1.391.031-1.585.046-.076.006-.593-.086-1.1-.109a1.835,1.835,0,0,0-1.656.661c-.228.16-.484.355-.746.562a3.432,3.432,0,0,0,.56,1.828,1.3,1.3,0,0,1,.388-.108,5.062,5.062,0,0,1,2.114.435c1.136.377,1.337.365,3.091-.9,1.285-.924,1.985-1.442,1.765-2.121C1275.261,690.806,1273.234,692.845,1271.65,693.067Z" transform="translate(-1267.856 -691.747)" fill="#ffa698" fill-rule="evenodd"/>
              <g id="Group_39" data-name="Group 39" transform="translate(0.274 0.655)">
                <path id="Path_100" data-name="Path 100" d="M1274.493,705.219c-1.092-.173-1.855-1.078-2.751-.549-.225.133-.431.265-.624.4a2.715,2.715,0,0,0,.286.513,1.3,1.3,0,0,1,.388-.108,5.064,5.064,0,0,1,2.114.435c1.136.377,1.337.365,3.091-.9a6.126,6.126,0,0,0,1.7-1.484c.114-.208-.221-.443-.5-.247C1276.784,704.29,1276.077,705,1274.493,705.219Z" transform="translate(-1271.118 -702.897)" fill-rule="evenodd" fill="url(#linear-gradient-31)"/>
                <path id="Path_101" data-name="Path 101" d="M1284.971,699.54c-.48.365-3,1.526-3.587,1.408-.158-.032-.133-.339-.149-.716-.121.251.029.815-.213.692-1.35-.687-1.934-.813-2.714-.318a2.8,2.8,0,0,1,1.543.111c.47.158.906.435,1.4.571A8.889,8.889,0,0,0,1284.971,699.54Z" transform="translate(-1277.703 -699.54)" fill-rule="evenodd" fill="url(#linear-gradient-32)"/>
              </g>
            </g>
            <g id="Group_41" data-name="Group 41">
              <path id="Path_102" data-name="Path 102" d="M1081.963,640.117c-.272-.266-.532-.549-.709-.713-1.37-1.272-3.627-5.4-4.9-11.551a7.03,7.03,0,0,1,2.063-.775,2.536,2.536,0,0,1,2.283.72,8.354,8.354,0,0,1,1.5,3.854,30.848,30.848,0,0,0,1.888,4.714q.044.108.086.215a30.916,30.916,0,0,1,2.923-1.323c1.323-.529,2.831-1.027,4.464-1.5.194-.057.375.071.567.016.107-.046.587-.216.672-.256a3.436,3.436,0,0,0,.8,2.368c-.1.034-.625.276-.732.316a2.3,2.3,0,0,0-.469.449c-1.228,1.268-4.772,3.167-8.033,4.164C1083.267,641.153,1082.431,640.968,1081.963,640.117Z" transform="translate(-1076.357 -627.033)" fill-rule="evenodd" fill="url(#linear-gradient-33)"/>
              <path id="Path_103" data-name="Path 103" d="M1081.963,641.568c-.272-.266-.532-.549-.709-.714-1.37-1.272-3.627-5.4-4.9-11.55,2.732-2.223,5.347,1.448,5.795,3.911a51.479,51.479,0,0,1,1.177,9.208A1.546,1.546,0,0,1,1081.963,641.568Z" transform="translate(-1076.357 -628.484)" fill="#6266d7" fill-rule="evenodd" opacity="0.35" style="mix-blend-mode: multiply;isolation: isolate"/>
            </g>
          </g>
          <g id="Group_43" data-name="Group 43" transform="translate(4.719 26.893)">
            <path id="Path_104" data-name="Path 104" d="M982.974,1256.27a6.131,6.131,0,0,1-.168.862,10.056,10.056,0,0,0-.443,1.384c-.227.964.085,2.256-.221,3.621a1.491,1.491,0,0,0,.216,1.464,2.525,2.525,0,0,0,1.9,1.2,1.306,1.306,0,0,0,.92-.446,2.2,2.2,0,0,0,.549-1.617,13.416,13.416,0,0,1-.144-1.861c.023-.668.145-1.036.13-1.769-.016-.774-.076-1.841-.088-2.34Z" transform="translate(-982.045 -1220.943)" fill="#16193b" fill-rule="evenodd"/>
            <path id="Path_105" data-name="Path 105" d="M1079.96,1200.917a4.485,4.485,0,0,0-.431,1.938c.155.506.511.711.908,1.06l.28.061c.694.375.947,1.692,1.591,2.291a4.993,4.993,0,0,0,2.255.826c.959.185,1.87-.089,1.62-.843-.62-1.873-3.3-3.99-3.362-6.083Z" transform="translate(-1071.33 -1169.559)" fill="#16193b" fill-rule="evenodd"/>
            <path id="Path_106" data-name="Path 106" d="M1058.464,854.226c-.069,3.589-.851,10.307-.731,13.844a2.356,2.356,0,0,1-3.35-.306c-.372-3.255-.806-7.878-.849-9.664a13.853,13.853,0,0,1,.477-4.188c-.533-3.927-2.8-9.286-2.261-12.981.237-1.623,1.3-3.37,1.61-4.709,2.675,3.3,4.714,1.716,5.821,1.43-.006,1.139.08.987.043,2.184-.125,4.047-.313,8.369-.535,12.568A5.738,5.738,0,0,1,1058.464,854.226Z" transform="translate(-1045.812 -836.221)" fill-rule="evenodd" fill="url(#linear-gradient-34)"/>
            <path id="Path_107" data-name="Path 107" d="M1053.766,861.5c-.125-1.413-.215-2.644-.233-3.4a13.853,13.853,0,0,1,.477-4.188c-.533-3.927-2.8-9.286-2.261-12.981.237-1.623,1.3-3.37,1.61-4.709,2.675,3.3,4.714,1.716,5.821,1.43,0,.127,0,.238,0,.336l-3.506,2.591.864-.2c-.033,4.664-.61,8.916-.7,13.515a69.816,69.816,0,0,0-2.062,7.524Z" transform="translate(-1045.812 -836.221)" fill="#1e2353" fill-rule="evenodd" opacity="0.3" style="mix-blend-mode: multiply;isolation: isolate"/>
            <path id="Path_108" data-name="Path 108" d="M996.042,867.359c-.645,3.589-2.525,12.3-2.974,15.836a2.2,2.2,0,0,1-3.047-.634c-.013-3.255,0-9.108.243-10.894a22.394,22.394,0,0,1,1.323-5.114c-.237-8.386-1.174-10.621-.041-14.316.5-1.623,1.8-3.189,2.324-4.528.718,1.1,1.826,2.668,4.2,2.474.232-.019,2.211-1.432,2.864-1.595-.828,4.989-3.214,11.506-4.375,16.947A6.3,6.3,0,0,1,996.042,867.359Z" transform="translate(-989.348 -846.744)" fill-rule="evenodd" fill="url(#linear-gradient-35)"/>
          </g>
          <path id="Path_109" data-name="Path 109" d="M984.467,625.565a1.982,1.982,0,0,1,.741.249c1.765.98,2.381,3.865,2.665,6.393a38.254,38.254,0,0,1-.01,6.018c-.056,1.6.151,3.081.079,4.6-.021.448-.192.935-.238,1.413,0,.341-.12.681-.116.945-.884,3.371-9.239,3.65-10.455,1.368a6.726,6.726,0,0,0,.214-1.021c-.787-.716-.332-2.462-.456-3.682a9.867,9.867,0,0,0-.5-2.518c-1.136-2.8-2.722-4.953-3.038-7.1-.217-1.48,1.674-3.322,4.168-4.815C979.925,625.974,983.182,625.19,984.467,625.565Z" transform="translate(-969.354 -616.303)" fill-rule="evenodd" fill="url(#linear-gradient-36)"/>
          <g id="Group_47" data-name="Group 47" transform="translate(5.799 15.391)">
            <g id="Group_46" data-name="Group 46" transform="translate(0.321)">
              <g id="Group_44" data-name="Group 44" transform="translate(0 0.158)">
                <path id="Path_110" data-name="Path 110" d="M1011.11,701.772c-.887.9-6.354,6.124-12.407,4.781l.062-.412c6.379,1.415,12.14-4.783,12.156-4.8l.156.149q.012.1.024.206C1011.1,701.721,1011.107,701.747,1011.11,701.772Z" transform="translate(-998.703 -701.341)" fill="#5c041d" fill-rule="evenodd"/>
                <path id="Path_111" data-name="Path 111" d="M1022.4,738.28c-1.5,1.41-6.15,5.29-11.357,4.537-.036-.154-.076-.3-.12-.441,5.545.9,10.516-3.739,11.491-4.715Q1022.411,737.972,1022.4,738.28Z" transform="translate(-1009.896 -734.606)" fill="#5c041d" fill-rule="evenodd"/>
              </g>
              <path id="Path_112" data-name="Path 112" d="M1009.287,707.014l1.076-2.238,1.442,2.432,1.242-2.961,1.707,2.283.883-3.181,1.8,1.946.82-3.62,1.345,2.03,1.128-4.247q.033.258.062.513.01.091.019.181l-1.1,4.155-1.33-2.007-.8,3.51-1.82-1.964-.9,3.24-1.748-2.339-1.266,3.018-1.456-2.457-.982,2.043q-.044-.135-.094-.26Z" transform="translate(-1008.397 -699.459)" fill="#5c041d" fill-rule="evenodd"/>
              <g id="Group_45" data-name="Group 45" transform="translate(0.432 2.3)">
                <path id="Path_113" data-name="Path 113" d="M1020.945,784.631a.237.237,0,0,1,.212.236.2.2,0,0,1-.212.206.237.237,0,0,1-.213-.236A.2.2,0,0,1,1020.945,784.631Z" transform="translate(-1019.312 -779.767)" fill="#5c041d" fill-rule="evenodd"/>
                <path id="Path_114" data-name="Path 114" d="M1036.187,769.157a.237.237,0,0,1,.212.236.2.2,0,0,1-.212.206.237.237,0,0,1-.213-.236A.2.2,0,0,1,1036.187,769.157Z" transform="translate(-1033.272 -765.595)" fill="#5c041d" fill-rule="evenodd"/>
                <path id="Path_115" data-name="Path 115" d="M1054,780.621a.237.237,0,0,1,.213.236.2.2,0,0,1-.213.206.237.237,0,0,1-.212-.236A.2.2,0,0,1,1054,780.621Z" transform="translate(-1049.583 -776.095)" fill="#5c041d" fill-rule="evenodd"/>
                <path id="Path_116" data-name="Path 116" d="M1069.072,760.661a.237.237,0,0,1,.212.236.2.2,0,0,1-.212.206.237.237,0,0,1-.213-.236A.2.2,0,0,1,1069.072,760.661Z" transform="translate(-1063.39 -757.813)" fill="#5c041d" fill-rule="evenodd"/>
                <path id="Path_117" data-name="Path 117" d="M1087.958,768.144a.237.237,0,0,1,.213.236.2.2,0,0,1-.213.206.237.237,0,0,1-.212-.236A.2.2,0,0,1,1087.958,768.144Z" transform="translate(-1080.689 -764.667)" fill="#5c041d" fill-rule="evenodd"/>
                <path id="Path_118" data-name="Path 118" d="M1099.223,746.088a.237.237,0,0,1,.213.236.2.2,0,0,1-.213.206.237.237,0,0,1-.212-.236A.2.2,0,0,1,1099.223,746.088Z" transform="translate(-1091.006 -744.466)" fill="#5c041d" fill-rule="evenodd"/>
                <path id="Path_119" data-name="Path 119" d="M1118.275,750.766a.237.237,0,0,1,.213.236.2.2,0,0,1-.213.206.237.237,0,0,1-.212-.236A.2.2,0,0,1,1118.275,750.766Z" transform="translate(-1108.456 -748.75)" fill="#5c041d" fill-rule="evenodd"/>
                <path id="Path_120" data-name="Path 120" d="M1128.38,726.806a.237.237,0,0,1,.212.236.2.2,0,0,1-.212.206.237.237,0,0,1-.213-.236A.2.2,0,0,1,1128.38,726.806Z" transform="translate(-1117.711 -726.806)" fill="#5c041d" fill-rule="evenodd"/>
                <path id="Path_121" data-name="Path 121" d="M1144.616,729.335a.211.211,0,0,1,.053.011c0,.144,0,.286,0,.428a.2.2,0,0,1-.055,0,.237.237,0,0,1-.212-.236A.2.2,0,0,1,1144.616,729.335Z" transform="translate(-1132.582 -729.122)" fill="#5c041d" fill-rule="evenodd"/>
                <path id="Path_122" data-name="Path 122" d="M1004.047,769.67a.237.237,0,0,1,.213.236.2.2,0,0,1-.213.206.237.237,0,0,1-.212-.236A.2.2,0,0,1,1004.047,769.67Z" transform="translate(-1003.835 -766.065)" fill="#5c041d" fill-rule="evenodd"/>
              </g>
            </g>
            <path id="Path_123" data-name="Path 123" d="M997.154,714.083a11.282,11.282,0,0,1-.935,6.2,19.629,19.629,0,0,0-1.336-2.837C994.932,717.308,996.76,711.948,997.154,714.083Z" transform="translate(-994.883 -712.394)" fill="#5c041d" fill-rule="evenodd" opacity="0.35" style="mix-blend-mode: multiply;isolation: isolate"/>
          </g>
          <g id="Group_48" data-name="Group 48" transform="translate(0 13.85)">
            <path id="Path_124" data-name="Path 124" d="M998.815,874.332c.386.2,1.078.376,1.36.521.146.075,1.2.639,1.791.984.634.369.844.948,1.249,1.579a4.118,4.118,0,0,1,.486,1.161c.057.273-.61.85-.913.8-.687-.106-1.431-.893-1.616-.974-1.567-.688-2.3-.719-2.887-1.309-.251-.252-.445-1.024-.973-1.7l.875-.9Z" transform="translate(-991.309 -858.084)" fill-rule="evenodd" fill="url(#linear-gradient-37)"/>
            <path id="Path_125" data-name="Path 125" d="M929.808,682.183c-1.4,2.237-2.4,6.305-3.642,9.062a1.785,1.785,0,0,0-.161.586,1.973,1.973,0,0,0,.6,1.865,20.1,20.1,0,0,0,4.478,4.614,1.445,1.445,0,0,0,.626.185c.15.108.362.308.522.421-.2-.23.843-1.539,1.36-1.491-.142-.154-.287-.322-.436-.5a1.575,1.575,0,0,0-.147-.575,24.281,24.281,0,0,0-3.164-4.19c.555-.723,1.025-1.564,1.413-2.158a35.8,35.8,0,0,0,1.846-3.194c.217-.422.338-.63.547-1.063C935.2,682.526,931.5,679.47,929.808,682.183Z" transform="translate(-925.933 -681.137)" fill-rule="evenodd" fill="url(#linear-gradient-38)"/>
          </g>
          <g id="Group_50" data-name="Group 50" transform="translate(9.324)">
            <g id="Group_49" data-name="Group 49">
              <path id="Path_126" data-name="Path 126" d="M1045.921,601.552c.025-.135.058-.27.087-.414.082-.413-.025-1.214.085-2.158l-3.577-1.511a15.259,15.259,0,0,1-.759,4.06c.04,1.61,4.038,2.33,4.121.439A3.027,3.027,0,0,1,1045.921,601.552Z" transform="translate(-1041.34 -590.655)" fill="#ffa698" fill-rule="evenodd"/>
              <path id="Path_127" data-name="Path 127" d="M1053.219,601.552c.025-.135.058-.27.087-.414.082-.413-.025-1.214.085-2.158l-3.578-1.511c-.013.456-.041.832-.079,1.158a3.2,3.2,0,0,0,3.442,3.34A2.99,2.99,0,0,1,1053.219,601.552Z" transform="translate(-1048.639 -590.655)" fill-rule="evenodd" fill="url(#linear-gradient-39)"/>
              <path id="Path_128" data-name="Path 128" d="M1047.876,541.649c-.439-.29-1.639-1.018-2.032-1.307-.86-.631-.756-1.436-1-2.7a2.265,2.265,0,0,1-1.147-1.547,3.738,3.738,0,0,1,1.462-3.264,3.248,3.248,0,0,1,2.813-.575,3.75,3.75,0,0,1,3.007,3.778,1.188,1.188,0,0,1-.058.441,5.579,5.579,0,0,0-.19.66c-.108.527.248.718.106,1.372a9.919,9.919,0,0,1-1.234,2.917A3.157,3.157,0,0,1,1047.876,541.649Z" transform="translate(-1043.09 -530.841)" fill="#ffa698" fill-rule="evenodd"/>
              <path id="Path_129" data-name="Path 129" d="M1086.5,569.046a5.757,5.757,0,0,1,.1.774,1.194,1.194,0,0,1-.058.441,5.589,5.589,0,0,0-.19.659c-.108.527.248.718.106,1.372a10.6,10.6,0,0,1-.556,1.636,1.9,1.9,0,0,1-2.654-.45,4.178,4.178,0,0,1-.266-4.158A5.074,5.074,0,0,0,1086.5,569.046Z" transform="translate(-1078.71 -564.623)" fill-rule="evenodd" fill="url(#linear-gradient-40)"/>
              <path id="Path_130" data-name="Path 130" d="M1036.831,521.139a10.23,10.23,0,0,0,.988,3.069c.417.67.235-.151.454-.61.169-.353.715-.394.881-.757a1.139,1.139,0,0,0,.388.719c.127.069.383.164.393-.2.035-1.26.631-1.347.443-2.1-.141-.566-.107-.809.031-1.013.411.057.676.479,1.158.687a4.215,4.215,0,0,0,2.862-.272,1.548,1.548,0,0,0,.257-2.585,15.2,15.2,0,0,0-1.751-1.053,3.229,3.229,0,0,0-4.155.44C1036.913,517.839,1036.709,519.622,1036.831,521.139Z" transform="translate(-1036.802 -516.461)" fill="#562e65" fill-rule="evenodd"/>
              <path id="Path_131" data-name="Path 131" d="M1051.833,583.858c-.774-.351-.87.573-.8,1.146.048.394.369.4.454.712a.731.731,0,0,0,.608.589c.489.034.258-.72.228-1.013C1052.425,584.827,1052.325,584.081,1051.833,583.858Z" transform="translate(-1049.819 -578.118)" fill="#ffa698" fill-rule="evenodd"/>
            </g>
            <path id="Path_132" data-name="Path 132" d="M1085.94,537.956c-.075.526.6,1.145,1.554,1.2a2.411,2.411,0,0,0,2.521-1.232,1.222,1.222,0,0,0-.464-1.323,1.108,1.108,0,0,0-1.058.005c-.652.287-1.2,1.015-1.663,1.195A6.469,6.469,0,0,1,1085.94,537.956Z" transform="translate(-1081.802 -534.783)" fill-rule="evenodd" fill="url(#linear-gradient-41)"/>
          </g>
        </g>
      </g>
    </g>
    <g id="Group_39186" data-name="Group 39186" transform="translate(0 7.77)">
      <g id="Group_3" data-name="Group 3" transform="translate(159.654 12.127)">
        <g id="Group_1" data-name="Group 1">
          <path id="Path_2" data-name="Path 2" d="M2176.6,332.087a6.3,6.3,0,0,1,2.229,2.118c-.008-.161-.016.429-.01-.482s-.518-2.383.195-3.12a7.7,7.7,0,0,1,1.989-.914,2.946,2.946,0,0,1,2.154.376,8.137,8.137,0,0,1,3.06,3.452,14.438,14.438,0,0,1,1.274,5c0,.922,0,.319-.014.473a2.634,2.634,0,0,1,2.287.371,9.05,9.05,0,0,1,3.121,3.524,11.511,11.511,0,0,1,1.312,5.089,5.359,5.359,0,0,1-.815,3.115,4.522,4.522,0,0,1-2.236,1.407c-2.041.709-5.977-3.429-8.053-4.6l-6.576-3.721a8.156,8.156,0,0,1-3.017-3.484,11.215,11.215,0,0,1-1.2-4.964c.009-.969-.7-2.423.217-3.12A3.691,3.691,0,0,1,2176.6,332.087Z" transform="translate(-2171.144 -329.616)" fill="#d36f13" fill-rule="evenodd"/>
          <path id="Path_3" data-name="Path 3" d="M2165.627,338.048a6.293,6.293,0,0,1,2.229,2.118c-.008-.161-.016.429-.01-.482a6.005,6.005,0,0,1,1.281-3.563,2.582,2.582,0,0,1,3.056-.095,8.131,8.131,0,0,1,3.06,3.451,14.433,14.433,0,0,1,1.274,5c0,.922-.005.319-.014.473a2.634,2.634,0,0,1,2.287.371,9.05,9.05,0,0,1,3.121,3.524,11.486,11.486,0,0,1,1.312,5.089,4.646,4.646,0,0,1-1.3,3.653,2.638,2.638,0,0,1-3.135.04l-6.671-3.775-6.576-3.721a8.157,8.157,0,0,1-3.017-3.484,11.215,11.215,0,0,1-1.205-4.964,4.612,4.612,0,0,1,1.279-3.549A2.738,2.738,0,0,1,2165.627,338.048Z" transform="translate(-2161.321 -335.075)" fill-rule="evenodd" fill="url(#linear-gradient-42)"/>
        </g>
        <g id="Group_2" data-name="Group 2" transform="translate(4.565 5.946)">
          <path id="Path_4" data-name="Path 4" d="M2217.65,405.559l-2.045-1.18,3.217,5.571,3.237-1.845-2.044-1.181.006-5.245-2.364-1.365Z" transform="translate(-2215.604 -400.313)" fill="#fff" fill-rule="evenodd"/>
          <path id="Path_5" data-name="Path 5" d="M2276.18,441.885l2.045,1.18-3.217-5.571-3.237,1.845,2.045,1.181-.006,5.245,2.364,1.365Z" transform="translate(-2267.048 -434.367)" fill="#fff" fill-rule="evenodd"/>
        </g>
      </g>
      <g id="Group_4" data-name="Group 4" transform="translate(44.276 18.407)">
        <path id="Path_6" data-name="Path 6" d="M794.208,414.646a10.473,10.473,0,0,1-4.741-7.412c-.186-2.687,1.634-3.726,4.067-2.32a10.478,10.478,0,0,1,4.741,7.412C798.462,415.015,796.64,416.052,794.208,414.646Z" transform="translate(-789.454 -404.287)" fill-rule="evenodd" fill="url(#linear-gradient-43)"/>
        <path id="Path_7" data-name="Path 7" d="M808.441,446.819l.645.323-2.865,4.36-2.529-3.75.833.326,1.336,1.268Z" transform="translate(-802.495 -443.242)" fill="#fff" fill-rule="evenodd"/>
      </g>
      <g id="Group_5" data-name="Group 5" transform="translate(0 0)">
        <path id="Path_8" data-name="Path 8" d="M336.281,185.427a4.07,4.07,0,1,1-4.07,4.07A4.07,4.07,0,0,1,336.281,185.427Z" transform="translate(-326.391 -185.427)" fill-rule="evenodd" opacity="0.5" fill="url(#linear-gradient-44)"/>
        <path id="Path_9" data-name="Path 9" d="M893.032,1552.609a11.726,11.726,0,1,1-11.726,11.726,11.726,11.726,0,0,1,11.726-11.726Zm0,3.122a8.6,8.6,0,1,0,8.6,8.6A8.6,8.6,0,0,0,893.032,1555.731Z" transform="translate(-829.305 -1437.625)" fill-rule="evenodd" opacity="0.5" fill="url(#linear-gradient-45)"/>
        <path id="Path_10" data-name="Path 10" d="M269.986,1274.734a6.98,6.98,0,1,1-6.98,6.98,6.98,6.98,0,0,1,6.98-6.98Zm0,1.858a5.121,5.121,0,1,0,5.122,5.121A5.121,5.121,0,0,0,269.986,1276.592Z" transform="translate(-263.006 -1183.12)" fill-rule="evenodd" opacity="0.968" fill="url(#linear-gradient-46)"/>
        <path id="Path_11" data-name="Path 11" d="M2590.466,793.595l-2.736-1.508a2.393,2.393,0,0,1-1.013-1.3l-1.05-3.324a2.35,2.35,0,0,0-1.022-1.3c-.406-.224-.794-.192-.906.239l-.629,2.4c-.1.381-.463.483-.91.235l-2.731-1.514c-.98-.543-1.291.618-.446,1.694l2.339,2.977a1.879,1.879,0,0,1,.463,1.459l-.639,2.38a2.172,2.172,0,0,0,1.076,2.006.783.783,0,0,0,.578.107l2.074-.546a.8.8,0,0,1,.583.114,2.083,2.083,0,0,1,.614.548l2.336,2.984a2.053,2.053,0,0,0,.609.549c.632.35,1.146-.022.856-.932l-1.055-3.322c-.175-.542-.062-.965.274-1.052l2.08-.533C2591.962,795.754,2591.452,794.14,2590.466,793.595Z" transform="translate(-2383.791 -735.512)" fill-rule="evenodd" opacity="0.5" fill="url(#linear-gradient-47)"/>
        <path id="Path_12" data-name="Path 12" d="M2245.255,1140.679a13.234,13.234,0,0,1-6-10.4c.011-3.823,2.717-5.364,6.043-3.444a13.231,13.231,0,0,1,6,10.4c-.01,3.822-2.716,5.365-6.042,3.444Zm0,1.62c4.105,2.371,7.444.467,7.457-4.25a16.329,16.329,0,0,0-7.409-12.833c-4.1-2.369-7.444-.467-7.457,4.25A16.331,16.331,0,0,0,2245.251,1142.3Z" transform="translate(-2071.752 -1045.244)" fill="#fff" fill-rule="evenodd" opacity="0.5"/>
      </g>
    </g>
  </g>
</svg>
