<svg id="school" xmlns="http://www.w3.org/2000/svg" xmlns:xlink="http://www.w3.org/1999/xlink" width="72.719" height="72.719" viewBox="0 0 72.719 72.719">
  <defs>
    <linearGradient id="linear-gradient" x1="0.5" x2="0.5" y2="1" gradientUnits="objectBoundingBox">
      <stop offset="0" stop-color="#fdba24"/>
      <stop offset="1" stop-color="#ff9535"/>
    </linearGradient>
  </defs>
  <g id="Group_39202" data-name="Group 39202" transform="translate(0 0)">
    <g id="Group_39201" data-name="Group 39201">
      <path id="Path_68340" data-name="Path 68340" d="M71.507,0H1.212A1.212,1.212,0,0,0,0,1.211H0v24.24H2.424V2.424H70.295V29.088H27.876v2.424H71.507A1.212,1.212,0,0,0,72.719,30.3h0V1.212A1.212,1.212,0,0,0,71.507,0Z" transform="translate(0 0)" fill="url(#linear-gradient)"/>
    </g>
  </g>
  <g id="Group_39204" data-name="Group 39204" transform="translate(40.102 5.347)">
    <g id="Group_39203" data-name="Group 39203" transform="translate(0 0)">
      <rect id="Rectangle_8079" data-name="Rectangle 8079" width="23" height="4" transform="translate(0.258 0.013)" fill="url(#linear-gradient)"/>
    </g>
  </g>
  <g id="Group_39206" data-name="Group 39206" transform="translate(44.38 13.367)">
    <g id="Group_39205" data-name="Group 39205" transform="translate(0 0)">
      <rect id="Rectangle_8080" data-name="Rectangle 8080" width="24" height="2" transform="translate(-0.021 -0.008)" fill="url(#linear-gradient)"/>
    </g>
  </g>
  <g id="Group_39208" data-name="Group 39208" transform="translate(38.498 21.388)">
    <g id="Group_39207" data-name="Group 39207" transform="translate(0 0)">
      <rect id="Rectangle_8081" data-name="Rectangle 8081" width="25" height="2" transform="translate(-0.138 -0.028)" fill="url(#linear-gradient)"/>
    </g>
  </g>
  <g id="Group_39210" data-name="Group 39210" transform="translate(0 4.848)">
    <g id="Group_39209" data-name="Group 39209">
      <path id="Path_68341" data-name="Path 68341" d="M38.687,37.6a3.911,3.911,0,0,0-5.113-2.109l-.1.044-9.827,5.1a5.993,5.993,0,0,0,.6-2.575A6.06,6.06,0,1,0,13.363,41.7h-.05a8.317,8.317,0,0,0-7.726,5.381L2.351,58.228A3.882,3.882,0,1,0,9.64,60.9l1.267-4.034V74.405A6.042,6.042,0,0,0,3.043,83.55,5.583,5.583,0,0,0,0,88.5V98.659a1.212,1.212,0,0,0,1.211,1.212h12.12a1.212,1.212,0,0,0,1.212-1.211h0V88.5a5.571,5.571,0,0,0-2.163-4.388h9.174A5.57,5.57,0,0,0,19.392,88.5V98.659A1.212,1.212,0,0,0,20.6,99.871h12.12a1.212,1.212,0,0,0,1.212-1.211h0V88.5a5.583,5.583,0,0,0-3.043-4.953,6.055,6.055,0,0,0-5.441-10.265V48.492l11.126-5.777A3.911,3.911,0,0,0,38.687,37.6ZM18.18,34.424a3.636,3.636,0,1,1-3.636,3.636A3.636,3.636,0,0,1,18.18,34.424ZM7.272,75.586a3.636,3.636,0,1,1-3.636,3.636A3.636,3.636,0,0,1,7.272,75.586ZM12.12,97.447h-9.7V88.5A3.18,3.18,0,0,1,5.6,85.327H8.944A3.18,3.18,0,0,1,12.12,88.5ZM31.511,88.5v8.944h-9.7V88.5a3.18,3.18,0,0,1,3.176-3.176h3.344A3.18,3.18,0,0,1,31.511,88.5ZM26.664,75.586a3.636,3.636,0,1,1-3.636,3.636A3.64,3.64,0,0,1,26.664,75.586Zm9.805-35.963a1.559,1.559,0,0,1-.915.9L23.682,46.68a1.212,1.212,0,0,0-.654,1.076v26.65a5.978,5.978,0,0,0-1.886,7.286h-1.75v-20.6H16.968v20.6H12.794a6,6,0,0,0,.534-2.424h0v-30.3a1.212,1.212,0,0,0-2.368-.363L7.345,60.12a1.457,1.457,0,0,1-2.022.806A1.488,1.488,0,0,1,4.646,59L7.881,47.85a5.855,5.855,0,0,1,5.431-3.731h8.582a1.207,1.207,0,0,0,.558-.136L34.5,37.731a1.492,1.492,0,0,1,1.907.707A1.474,1.474,0,0,1,36.469,39.623Z" transform="translate(0 -32)" fill="url(#linear-gradient)"/>
    </g>
  </g>
  <g id="Group_39212" data-name="Group 39212" transform="translate(38.783 45.997)">
    <g id="Group_39211" data-name="Group 39211">
      <path id="Path_68342" data-name="Path 68342" d="M267.5,314.019a6.06,6.06,0,1,0-8.569-.112q.055.057.112.112A5.584,5.584,0,0,0,256,318.972v10.156a1.212,1.212,0,0,0,1.211,1.212h12.12a1.212,1.212,0,0,0,1.212-1.211h0V318.972A5.584,5.584,0,0,0,267.5,314.019Zm-4.229-7.964a3.636,3.636,0,1,1-3.636,3.636A3.636,3.636,0,0,1,263.272,306.055Zm4.848,21.861h-9.7v-8.944A3.18,3.18,0,0,1,261.6,315.8h3.344a3.18,3.18,0,0,1,3.176,3.176Z" transform="translate(-256 -303.618)" fill="url(#linear-gradient)"/>
    </g>
  </g>
  <g id="Group_39214" data-name="Group 39214" transform="translate(58.175 45.997)">
    <g id="Group_39213" data-name="Group 39213">
      <path id="Path_68343" data-name="Path 68343" d="M395.5,314.019a6.06,6.06,0,1,0-8.569-.112q.055.057.112.112A5.584,5.584,0,0,0,384,318.972v10.156a1.212,1.212,0,0,0,1.211,1.212h12.12a1.212,1.212,0,0,0,1.212-1.211h0V318.972A5.584,5.584,0,0,0,395.5,314.019Zm-4.229-7.964a3.636,3.636,0,1,1-3.636,3.636A3.636,3.636,0,0,1,391.272,306.055Zm4.848,21.861h-9.7v-8.944A3.18,3.18,0,0,1,389.6,315.8h3.344a3.18,3.18,0,0,1,3.176,3.176Z" transform="translate(-384 -303.618)" fill="url(#linear-gradient)"/>
    </g>
  </g>
</svg>
