<svg id="social-media-marketing" xmlns="http://www.w3.org/2000/svg" xmlns:xlink="http://www.w3.org/1999/xlink" width="98.865" height="87.956" viewBox="0 0 98.865 87.956">
  <defs>
    <linearGradient id="linear-gradient" x1="0.5" x2="0.5" y2="1" gradientUnits="objectBoundingBox">
      <stop offset="0" stop-color="#fdba24"/>
      <stop offset="1" stop-color="#ff9535"/>
    </linearGradient>
  </defs>
  <path id="Path_67930" data-name="Path 67930" d="M384.308,57.29H361.864a2.849,2.849,0,0,1-2.849-2.849V38.62a2.849,2.849,0,0,1,2.849-2.849h22.445a2.849,2.849,0,0,1,2.849,2.849V54.441A2.849,2.849,0,0,1,384.308,57.29Z" transform="translate(-289.739 -34.324)" fill="url(#linear-gradient)"/>
  <path id="Path_67931" data-name="Path 67931" d="M473.936,35.77h-3.863a2.849,2.849,0,0,1,2.849,2.849V54.44a2.849,2.849,0,0,1-2.849,2.849h3.863a2.849,2.849,0,0,0,2.849-2.849V38.619A2.849,2.849,0,0,0,473.936,35.77Z" transform="translate(-379.367 -34.323)" fill="#fe9534"/>
  <path id="Path_67932" data-name="Path 67932" d="M421.491,71.986l-6.268-3.619a.872.872,0,0,0-1.308.755v7.238a.872.872,0,0,0,1.308.755l6.268-3.619A.872.872,0,0,0,421.491,71.986Z" transform="translate(-334.045 -60.535)" fill="#f6f1f1"/>
  <path id="Path_67933" data-name="Path 67933" d="M389.878,210.982h-20.1a2.407,2.407,0,0,1-2.407-2.407v-20.1a2.407,2.407,0,0,1,2.407-2.407h20.1a2.407,2.407,0,0,1,2.407,2.407v20.1A2.407,2.407,0,0,1,389.878,210.982Z" transform="translate(-296.479 -155.615)" fill="url(#linear-gradient)"/>
  <path id="Path_67934" data-name="Path 67934" d="M467.325,186.064h-3.994a2.407,2.407,0,0,1,2.407,2.407v20.1a2.407,2.407,0,0,1-2.407,2.407h3.994a2.407,2.407,0,0,0,2.407-2.407v-20.1A2.407,2.407,0,0,0,467.325,186.064Z" transform="translate(-373.926 -155.616)" fill="#fe9534"/>
  <ellipse id="Ellipse_1066" data-name="Ellipse 1066" cx="5.062" cy="5.062" rx="5.062" ry="5.062" transform="translate(78.285 40.062)" fill="#f6f1f1"/>
  <path id="Path_67935" data-name="Path 67935" d="M380.1,348.137a12.393,12.393,0,0,0-10.846,18.39l-1.547,5.775,5.5-1.473a12.393,12.393,0,1,0,6.9-22.691Z" transform="translate(-296.758 -286.415)" fill="url(#linear-gradient)"/>
  <path id="Path_67936" data-name="Path 67936" d="M421.5,348.137a12.444,12.444,0,0,0-2.495.251,12.4,12.4,0,0,1,.005,24.282,12.393,12.393,0,1,0,2.489-24.534Z" transform="translate(-338.156 -286.415)" fill="#fe9534"/>
  <g id="Group_38921" data-name="Group 38921" transform="translate(1.447 21.156)">
    <path id="Path_67937" data-name="Path 67937" d="M95.613,275.276H85.677v18.312a2.543,2.543,0,0,0,2.543,2.543H89.1a2.543,2.543,0,0,0,2.543-2.543V287.3a1.62,1.62,0,0,1,.933-1.467l2.1-.985a1.621,1.621,0,0,0,.933-1.467Z" transform="translate(-70.59 -248.769)" fill="#fdb924"/>
    <path id="Path_67938" data-name="Path 67938" d="M85.681,275.275v5.745h9.937v-5.745H85.681Z" transform="translate(-70.594 -248.769)" fill="#fdb924"/>
    <path id="Path_67939" data-name="Path 67939" d="M146.61,166.5l18.97,7.894,0-36.488L146.612,145.8l-3.717,2.315v14.792Z" transform="translate(-116.768 -137.91)" fill="url(#linear-gradient)"/>
    <path id="Path_67940" data-name="Path 67940" d="M81,199.5l-16.59,0a2.813,2.813,0,0,1-2.813-2.813V181.608a2.813,2.813,0,0,1,2.813-2.813l16.59,0Z" transform="translate(-51.159 -170.906)" fill="#f6f1f1"/>
    <path id="Path_67941" data-name="Path 67941" d="M144.592,178.8h3.389v20.7h-3.389Z" transform="translate(-118.138 -170.911)" fill="#dae4ea"/>
    <path id="Path_67942" data-name="Path 67942" d="M242.679,139.337l0,33.633,3.432,1.428,0-36.488Z" transform="translate(-197.296 -137.91)" fill="#fe9534"/>
    <path id="Path_67943" data-name="Path 67943" d="M13.21,214.26h4.728V202.836H13.211a5.712,5.712,0,0,0,0,11.424Z" transform="translate(-7.499 -190.308)" fill="url(#linear-gradient)"/>
    <path id="Path_67944" data-name="Path 67944" d="M94.865,184.82h-3.79a2.518,2.518,0,0,1-2.517-2.518V178.8h8.825V182.3A2.517,2.517,0,0,1,94.865,184.82Z" transform="translate(-72.916 -170.907)" fill="url(#linear-gradient)"/>
    <path id="Path_67945" data-name="Path 67945" d="M107.77,178.8V182.3a2.518,2.518,0,0,1-2.518,2.517h3.086a2.517,2.517,0,0,0,2.518-2.517V178.8Z" transform="translate(-86.389 -170.909)" fill="#fe9534"/>
  </g>
  <g id="Group_38922" data-name="Group 38922" transform="translate(0 0)">
    <path id="Path_67946" data-name="Path 67946" d="M407.575,72.325a2.325,2.325,0,0,0,2.319,0l6.268-3.619a2.319,2.319,0,0,0,0-4.017l-6.268-3.619a2.319,2.319,0,0,0-3.479,2.009v7.238A2.326,2.326,0,0,0,407.575,72.325Zm1.735-8.25,4.543,2.623-4.543,2.623Z" transform="translate(-327.993 -54.491)" fill="#8b0329"/>
    <path id="Path_67947" data-name="Path 67947" d="M383.826,178.563h-20.1a3.859,3.859,0,0,0-3.855,3.855v20.1a3.859,3.859,0,0,0,3.855,3.855h20.1a3.859,3.859,0,0,0,3.855-3.855v-20.1A3.859,3.859,0,0,0,383.826,178.563Zm.96,23.959a.961.961,0,0,1-.96.96h-20.1a.961.961,0,0,1-.96-.96v-20.1a.961.961,0,0,1,.96-.96h20.1a.961.961,0,0,1,.96.96Z" transform="translate(-290.427 -149.562)" fill="#8b0329"/>
    <path id="Path_67948" data-name="Path 67948" d="M404.715,228.387a6.509,6.509,0,1,0,6.509,6.509A6.516,6.516,0,0,0,404.715,228.387Zm0,10.124a3.614,3.614,0,1,1,3.614-3.615A3.619,3.619,0,0,1,404.715,238.511Z" transform="translate(-321.368 -189.772)" fill="#8b0329"/>
    <path id="Path_67949" data-name="Path 67949" d="M461.447,205.158A1.447,1.447,0,0,0,460,206.605v1.258a1.447,1.447,0,0,0,2.894,0v-1.258A1.447,1.447,0,0,0,461.447,205.158Z" transform="translate(-371.238 -171.025)" fill="#8b0329"/>
    <path id="Path_67950" data-name="Path 67950" d="M407.611,392.176a.3.3,0,0,1-.423,0l-.8-.8a1.447,1.447,0,0,0-2.047,2.047l.8.8a3.2,3.2,0,0,0,4.517,0l4.14-4.14a3.2,3.2,0,0,0,0-4.517l-.8-.8a1.447,1.447,0,0,0-2.046,2.047l.8.8a.3.3,0,0,1,0,.423Z" transform="translate(-325.98 -315.637)" fill="#8b0329"/>
    <path id="Path_67951" data-name="Path 67951" d="M50.262,121.5h0a1.447,1.447,0,0,0-1.447,1.447v.754l-8.42,3.5a1.446,1.446,0,0,0-1.443-1.368h0a1.447,1.447,0,0,0-1.447,1.447v1.123l-6.5,2.7-16.3,0h0a4.265,4.265,0,0,0-4.26,4.26v.379H8.734v-.092a1.447,1.447,0,0,0-1.447-1.447h0a1.447,1.447,0,0,0-1.447,1.447v.215a7.16,7.16,0,0,0,0,14.074v.214a1.447,1.447,0,0,0,1.447,1.447h0a1.447,1.447,0,0,0,1.447-1.447v-.092h1.706v.379a4.26,4.26,0,0,0,4.26,4.261h.387v4.662a1.447,1.447,0,1,0,2.894,0v-4.662h7.042v4.575a.174.174,0,0,1-.1.157l-2.1.985a3.08,3.08,0,0,0-1.767,2.778v6.283a1.1,1.1,0,0,1-1.1,1.1h-.881a1.1,1.1,0,0,1-1.1-1.1v-3.68a1.447,1.447,0,0,0-1.447-1.447h0a1.447,1.447,0,0,0-1.447,1.447v3.68a3.988,3.988,0,0,0,3.99,3.991h.881a3.988,3.988,0,0,0,3.99-3.99V163.2a.174.174,0,0,1,.1-.157l2.1-.986a3.08,3.08,0,0,0,1.766-2.778v-4.575H31l6.5,2.706v1.123a1.447,1.447,0,0,0,1.447,1.447h0a1.446,1.446,0,0,0,1.443-1.368l8.419,3.5v.754a1.447,1.447,0,0,0,1.447,1.447h0a1.447,1.447,0,0,0,1.447-1.447v-1.719h0l0-18.244,0-19.963a1.447,1.447,0,0,0-1.447-1.447ZM18.536,134h5.931v2.059a1.07,1.07,0,0,1-1.07,1.07h-3.79a1.07,1.07,0,0,1-1.07-1.071Zm-15.641,8.9a4.257,4.257,0,0,1,2.945-4.054v8.108A4.256,4.256,0,0,1,2.894,142.906Zm5.838,4.265v-8.529H10.44c0,1.3,0,7.191,0,8.529Zm5,4.24a1.358,1.358,0,0,1-.4-.966c0-3.755,0-11.342,0-15.077A1.366,1.366,0,0,1,14.7,134h.941v2.058a3.969,3.969,0,0,0,3.965,3.965H23.4a3.962,3.962,0,0,0,3.965-3.964V134h2.483c0,2.155,0,15.691,0,17.809H14.7a1.356,1.356,0,0,1-.966-.4Zm19,.884c0-2.139,0-16.617,0-18.773l4.766-1.982,0,22.738Zm7.66,3.188,0-25.147,8.416-3.5v32.149Z" transform="translate(0 -103.51)" fill="#8b0329"/>
    <path id="Path_67952" data-name="Path 67952" d="M297.941,224.938h-5.812a1.447,1.447,0,1,0,0,2.894h5.812a1.447,1.447,0,0,0,0-2.894Z" transform="translate(-234.592 -186.989)" fill="#8b0329"/>
    <path id="Path_67953" data-name="Path 67953" d="M284.117,141.574l4.109-4.109a1.447,1.447,0,0,0-2.047-2.046l-4.109,4.109a1.447,1.447,0,0,0,2.047,2.046Z" transform="translate(-227.299 -114.4)" fill="#8b0329"/>
    <path id="Path_67954" data-name="Path 67954" d="M283.539,293.771a1.447,1.447,0,0,0-2.047,2.047l4.11,4.11a1.447,1.447,0,0,0,2.047-2.047Z" transform="translate(-226.833 -242.197)" fill="#8b0329"/>
    <path id="Path_67955" data-name="Path 67955" d="M374.051,340.637a13.841,13.841,0,0,0-12.39,20.009l-1.4,5.228a1.447,1.447,0,0,0,1.772,1.772l4.884-1.308a13.835,13.835,0,0,0,15.675-.973,1.447,1.447,0,0,0-1.788-2.276,10.938,10.938,0,0,1-12.841.486,1.447,1.447,0,0,0-1.181-.2l-3.077.824.9-3.353a1.447,1.447,0,0,0-.132-1.076A10.946,10.946,0,1,1,384,359.05a1.447,1.447,0,0,0,2.629,1.211,13.839,13.839,0,0,0-12.573-19.624Z" transform="translate(-290.704 -280.362)" fill="#8b0329"/>
    <path id="Path_67956" data-name="Path 67956" d="M378.255,28.27H364.864a1.447,1.447,0,1,0,0,2.894h13.391a1.4,1.4,0,0,1,1.4,1.4V48.387a1.4,1.4,0,0,1-1.4,1.4H355.81a1.4,1.4,0,0,1-1.4-1.4V32.566a1.4,1.4,0,0,1,1.4-1.4h3.267a1.447,1.447,0,0,0,0-2.894H355.81a4.3,4.3,0,0,0-4.3,4.3V48.387a4.3,4.3,0,0,0,4.3,4.3h22.444a4.3,4.3,0,0,0,4.3-4.3V32.566A4.3,4.3,0,0,0,378.255,28.27Z" transform="translate(-283.685 -28.27)" fill="#8b0329"/>
  </g>
</svg>
