<svg xmlns="http://www.w3.org/2000/svg" xmlns:xlink="http://www.w3.org/1999/xlink" width="87.7" height="87.7" viewBox="0 0 87.7 87.7">
  <defs>
    <linearGradient id="linear-gradient" x1="0.5" x2="0.5" y2="1" gradientUnits="objectBoundingBox">
      <stop offset="0" stop-color="#fdba24"/>
      <stop offset="1" stop-color="#ff9535"/>
    </linearGradient>
  </defs>
  <g id="stock" transform="translate(0.001)">
    <path id="Path_68006" data-name="Path 68006" d="M92.871,10.829v8.487H8V10.829A2.837,2.837,0,0,1,10.829,8H90.042A2.837,2.837,0,0,1,92.871,10.829Zm0,0" transform="translate(-6.586 -6.585)" fill="url(#linear-gradient)"/>
    <path id="Path_68007" data-name="Path 68007" d="M92.871,72v73.555H8V72Zm0,0" transform="translate(-6.586 -59.269)" fill="#e6e9ed"/>
    <path id="Path_68008" data-name="Path 68008" d="M396.731,392.487l-4.244,4.244-4.244-4.244-2.829,2.829L384,384l11.316,1.415-2.829,2.829Zm0,0" transform="translate(-316.103 -316.103)" fill="url(#linear-gradient)"/>
    <g id="Group_38951" data-name="Group 38951" transform="translate(52.337 22.632)">
      <path id="Path_68009" data-name="Path 68009" d="M429.658,136v5.658H424V136Zm0,0" transform="translate(-401.368 -134.585)" fill="url(#linear-gradient)"/>
      <path id="Path_68010" data-name="Path 68010" d="M365.658,184v5.658H360V184Zm0,0" transform="translate(-348.684 -174.098)" fill="url(#linear-gradient)"/>
      <path id="Path_68011" data-name="Path 68011" d="M301.658,128v5.658H296V128Zm0,0" transform="translate(-296 -128)" fill="url(#linear-gradient)"/>
    </g>
    <path id="Path_68012" data-name="Path 68012" d="M296.679,252.668a2.8,2.8,0,0,1-.679-1.839,2.829,2.829,0,1,1,.679,1.839Zm0,0" transform="translate(-243.663 -204.15)" fill="#ffc729"/>
    <path id="Path_68013" data-name="Path 68013" d="M244.979,296.99a2.8,2.8,0,0,1,.679,1.839,2.829,2.829,0,1,1-.679-1.839Zm0,0" transform="translate(-197.565 -243.663)" fill="#ffc729"/>
    <path id="Path_68014" data-name="Path 68014" d="M242.829,384A2.829,2.829,0,1,1,240,386.829a2.692,2.692,0,0,1,.41-1.457A2.834,2.834,0,0,1,242.829,384Zm0,0" transform="translate(-197.565 -316.103)" fill="#ffc729"/>
    <path id="Path_68015" data-name="Path 68015" d="M56.974,104A16.974,16.974,0,1,1,40,120.974,16.97,16.97,0,0,1,56.974,104Zm0,0" transform="translate(-32.928 -85.611)" fill="url(#linear-gradient)"/>
    <path id="Path_68016" data-name="Path 68016" d="M165.658,338.829a2.692,2.692,0,0,1-.41,1.457,2.816,2.816,0,0,1-4.809.043,2.736,2.736,0,0,1-.439-1.5,2.829,2.829,0,0,1,5.658,0Zm0,0" transform="translate(-131.71 -276.59)" fill="#ffc729"/>
    <path id="Path_68017" data-name="Path 68017" d="M121.9,167.073l-9.9,7.073V160Zm0,0" transform="translate(-92.197 -131.71)" fill="#e6e9ed"/>
    <path id="Path_68018" data-name="Path 68018" d="M101.658,426.829A2.829,2.829,0,1,1,98.829,424,2.829,2.829,0,0,1,101.658,426.829Zm0,0" transform="translate(-79.026 -349.03)" fill="#ffc729"/>
    <path id="Path_68019" data-name="Path 68019" d="M45.658,322.829A2.829,2.829,0,1,1,42.829,320,2.829,2.829,0,0,1,45.658,322.829Zm0,0" transform="translate(-32.928 -263.419)" fill="#ffc729"/>
    <path id="Path_68020" data-name="Path 68020" d="M83.457,0H4.244A4.249,4.249,0,0,0,0,4.244V87.7H87.7V4.244A4.249,4.249,0,0,0,83.457,0ZM4.244,2.829H83.457a1.415,1.415,0,0,1,1.415,1.415v7.073H2.829V4.244A1.415,1.415,0,0,1,4.244,2.829ZM2.829,84.871V14.145H84.871V84.871Zm0,0" transform="translate(-0.001)" fill="#5c041d"/>
    <path id="Path_68021" data-name="Path 68021" d="M32,32h2.829v2.829H32Zm0,0" transform="translate(-26.342 -26.342)"/>
    <path id="Path_68022" data-name="Path 68022" d="M64,32h2.829v2.829H64Zm0,0" transform="translate(-52.684 -26.342)"/>
    <path id="Path_68023" data-name="Path 68023" d="M96,32h2.829v2.829H96Zm0,0" transform="translate(-79.026 -26.342)"/>
    <path id="Path_68024" data-name="Path 68024" d="M104,144.457V164.1l13.751-9.822Zm2.829,5.5,6.053,4.324-6.053,4.324Zm0,0" transform="translate(-85.612 -118.915)" fill="#5c041d"/>
    <path id="Path_68025" data-name="Path 68025" d="M168.944,148.667h2.829a12.775,12.775,0,0,0-6.364-11.026l-1.417,2.447A9.943,9.943,0,0,1,168.944,148.667Zm0,0" transform="translate(-134.996 -113.304)" fill="#5c041d"/>
    <path id="Path_68026" data-name="Path 68026" d="M139.18,128.4A12.864,12.864,0,0,0,136,128v2.829a9.945,9.945,0,0,1,2.478.313Zm0,0" transform="translate(-111.954 -105.368)" fill="#5c041d"/>
    <path id="Path_68027" data-name="Path 68027" d="M50.389,132.777A18.389,18.389,0,1,0,32,114.389,18.41,18.41,0,0,0,50.389,132.777Zm0-33.948a15.56,15.56,0,1,1-15.56,15.56A15.578,15.578,0,0,1,50.389,98.829Zm0,0" transform="translate(-26.342 -79.026)" fill="#5c041d"/>
    <path id="Path_68028" data-name="Path 68028" d="M390.776,376.792l-15.991-2,2,15.991,3.874-3.876,4.244,4.244,6.244-6.244-4.243-4.243Zm-3.631,8.116-2.243,2.243-4.244-4.243-1.785,1.784-.83-6.642,6.642.83-1.783,1.784Zm0,0" transform="translate(-308.518 -308.524)" fill="#5c041d"/>
    <path id="Path_68029" data-name="Path 68029" d="M326.145,320.487v-2.829h-3.658l2.586-2.586-2-2-2.586,2.586V312h-2.829v3.658l-2.586-2.586-2,2,2.586,2.586H312v2.829h3.658l-2.586,2.586,2,2,2.586-2.586v3.658h2.829V321.9H317.9l-1.658-1.658V317.9l1.658-1.658h2.343L321.9,317.9v2.586Zm0,0" transform="translate(-256.834 -256.834)" fill="#5c041d"/>
    <path id="Path_68030" data-name="Path 68030" d="M75.85,134.192a4.212,4.212,0,0,0-.294-1.524l3.851-3.3a4.18,4.18,0,0,0,2.1.58,4.233,4.233,0,0,0,1.415-8.227V108.731h2.829v-8.487H82.923V96H80.094v4.244H77.265v8.487h2.829v12.991a4.191,4.191,0,0,0-2.535,5.507l-3.851,3.3a4.18,4.18,0,0,0-2.1-.58,4.233,4.233,0,0,0-1.415,8.227v7.595a4.233,4.233,0,0,0-1.269.722l-7.3-4.382a4.244,4.244,0,1,0-8.4-.846,4.181,4.181,0,0,0,.143,1.037l-7.071,5.539-6.568-6.986a4.4,4.4,0,1,0-2.331,1.648l7.34,7.81v2.529a4.244,4.244,0,1,0,2.829,0v-2.4l7.381-5.782a4.156,4.156,0,0,0,5.2-.134l7.3,4.382a4.246,4.246,0,1,0,5.573-3.137v-7.595A4.235,4.235,0,0,0,75.85,134.192Zm4.244-31.119h2.829V105.9H80.094ZM34.829,138.436a1.415,1.415,0,1,1,1.415,1.415A1.415,1.415,0,0,1,34.829,138.436ZM81.508,124.29a1.415,1.415,0,1,1-1.415,1.415A1.415,1.415,0,0,1,81.508,124.29Zm-9.9,8.487a1.415,1.415,0,1,1-1.415,1.415A1.415,1.415,0,0,1,71.607,132.777ZM46.145,158.239a1.415,1.415,0,1,1,1.415-1.415A1.415,1.415,0,0,1,46.145,158.239Zm11.316-15.56a1.415,1.415,0,1,1,1.415-1.415A1.415,1.415,0,0,1,57.461,142.679Zm14.145,8.487a1.415,1.415,0,1,1,1.414-1.415A1.415,1.415,0,0,1,71.607,151.166Zm0,0" transform="translate(-26.342 -79.026)" fill="#5c041d"/>
    <path id="Path_68031" data-name="Path 68031" d="M418.829,129.948h2.829v-19.8h2.829v-8.487h-2.829V96h-2.829v5.658H416v8.487h2.829Zm0-25.461h2.829v2.829h-2.829Zm0,0" transform="translate(-342.445 -79.026)" fill="#5c041d"/>
    <path id="Path_68032" data-name="Path 68032" d="M354.829,129.948h2.829V118.632h2.829v-8.487h-2.829V96h-2.829v14.145H352v8.487h2.829Zm0-16.974h2.829V115.8h-2.829Zm0,0" transform="translate(-289.761 -79.026)" fill="#5c041d"/>
  </g>
</svg>
