<svg id="translation" xmlns="http://www.w3.org/2000/svg" width="87.704" height="88" viewBox="0 0 87.704 88">
  <path id="Path_70184" data-name="Path 70184" d="M29.833,0A29.833,29.833,0,1,1,0,29.833,29.833,29.833,0,0,1,29.833,0Z" transform="translate(0 0.11)" fill="#fdb924"/>
  <path id="Path_67845" data-name="Path 67845" d="M205.907,30.078A30.112,30.112,0,0,1,176,60.156V0A30.112,30.112,0,0,1,205.907,30.078Z" transform="translate(-146.047 0)" fill="#fe9534"/>
  <path id="Path_67846" data-name="Path 67846" d="M134.521,115.513l-8.25-24.75a2.578,2.578,0,0,0-4.892,0l-8.25,24.75a2.578,2.578,0,0,0,4.892,1.629l1.246-3.737h9.116l1.246,3.737a2.578,2.578,0,1,0,4.892-1.629Zm-13.535-7.263,2.839-8.52,2.839,8.52Z" transform="translate(-93.872 -73.703)" fill="#fff"/>
  <path id="Path_67847" data-name="Path 67847" d="M185.065,118.774a2.579,2.579,0,0,1-3.261-1.631l-1.246-3.737H176V108.25h2.839L176,99.73V89a2.577,2.577,0,0,1,2.446,1.763l8.25,24.75A2.578,2.578,0,0,1,185.065,118.774Z" transform="translate(-146.047 -73.703)" fill="#fff"/>
  <path id="Path_67848" data-name="Path 67848" d="M222.158,192.078A30.079,30.079,0,1,1,191.907,162,30.106,30.106,0,0,1,222.158,192.078Z" transform="translate(-134.453 -134.156)" fill="#8b0329"/>
  <path id="Path_67849" data-name="Path 67849" d="M366.251,192.078A30.106,30.106,0,0,1,336,222.156V162A30.1,30.1,0,0,1,366.251,192.078Z" transform="translate(-278.546 -134.156)" fill="#5c041d"/>
  <path id="Path_67850" data-name="Path 67850" d="M266.453,265h-6.875a2.578,2.578,0,1,0,0,5.156h4.164c-.4,4.425-1.845,11.515-5.775,14.659a2.578,2.578,0,1,0,3.221,4.026c7.754-6.2,7.843-20.651,7.843-21.263A2.578,2.578,0,0,0,266.453,265Z" transform="translate(-213.125 -219.453)" fill="#fff"/>
  <path id="Path_67851" data-name="Path 67851" d="M361.078,258.625h-2.922v-7.047a2.578,2.578,0,0,0-5.156,0v24.75a2.578,2.578,0,1,0,5.156,0V263.781h2.922a2.578,2.578,0,1,0,0-5.156Z" transform="translate(-292.624 -206.203)" fill="#fff"/>
  <path id="Path_67852" data-name="Path 67852" d="M385.329,51.906a2.578,2.578,0,0,1-2.578-2.578,11.185,11.185,0,0,0-11.172-11.172,2.578,2.578,0,1,1,0-5.156,16.347,16.347,0,0,1,16.328,16.328A2.578,2.578,0,0,1,385.329,51.906Z" transform="translate(-305.874 -27.328)" fill="#8b0329"/>
  <path id="Path_67853" data-name="Path 67853" d="M49.328,387.906A16.347,16.347,0,0,1,33,371.578a2.578,2.578,0,0,1,5.156,0A11.185,11.185,0,0,0,49.328,382.75a2.578,2.578,0,1,1,0,5.156Z" transform="translate(-27.626 -305.578)" fill="#fdb924"/>
</svg>
